<svg width="85" height="86" viewBox="0 0 85 86" fill="none" xmlns="http://www.w3.org/2000/svg">
<g clip-path="url(#clip0_28_94)">
<path d="M71.2556 13.3499H65.1622C67.8967 13.0682 69.9477 10.7998 69.9477 8.04716V7.88572C69.9477 5.05398 67.7353 2.72467 64.9003 2.583C58.4049 2.26177 52.4927 1.89936 47.4453 6.45914C45.0006 8.6649 43.1408 11.1211 41.6533 13.6975L41.2925 8.52653C41.0916 5.83481 38.698 3.88768 36.0244 4.24844C34.2947 4.48895 32.9274 5.27307 32.1433 6.89898L32.0758 6.98299C31.4712 5.03421 30.5965 3.36877 29.3478 2.17941C27.8389 0.733059 25.6677 0.411832 23.7782 1.37551L23.7387 1.39528C22.4521 2.03774 21.5873 3.12167 21.2249 4.50872C20.8625 5.91388 21.1046 7.25974 21.9085 8.46558C23.8194 11.2973 24.8638 14.5508 24.8638 18.2259L24.8654 18.2292C15.8513 23.7774 9.92425 35.3993 10.2636 46.5846C10.4448 52.4095 12.3145 58.1125 16.3373 62.7514L33.8532 81.0284C36.6487 83.9408 40.2069 85.3658 44.2297 85.145C48.2722 84.9441 51.6706 83.1765 54.1433 79.984L63.8756 67.4512C67.9972 61.6872 69.7681 55.5213 69.9279 49.5563C70.1898 40.3989 66.6497 31.7422 62.0652 25.9371C62.0652 21.7397 66.8919 20.8765 71.3957 20.6953C73.3065 20.6146 74.8138 19.048 74.8138 17.1404V16.8801C74.8155 14.9363 73.2275 13.3499 71.2556 13.3499Z" fill="#F47C7C"/>
<path d="M65.1622 13.3499C67.8967 13.0682 69.9477 10.7998 69.9477 8.04717V7.88573C69.9477 6.6733 69.5408 5.55312 68.8538 4.65698C68.8555 4.70311 68.8571 4.74759 68.8571 4.79371V4.97327C68.8571 8.03564 66.5739 10.5626 63.5297 10.8756C52.5157 11.9497 48.1948 16.465 46.5145 22.2339C41.9251 37.834 47.699 49.1906 59.1445 51.9944C62.0389 52.7027 63.7653 55.6728 62.9284 58.5342C62.1311 61.2622 60.8413 64.5321 58.7805 67.4133L49.4072 78.1456C46.62 80.9328 40.3371 83.4681 35.1974 82.2738C37.7541 84.3444 40.8247 85.3361 44.2248 85.1483C48.2673 84.9474 51.6657 83.1798 54.1383 79.9873L63.8707 67.4545C67.9923 61.6905 69.7632 55.5246 69.923 49.5596C52.8106 49.5596 45.1884 39.478 49.8734 23.5517C51.3873 18.3709 55.2684 14.3136 65.1622 13.3499Z" fill="#EE6161"/>
<path d="M71.2557 13.3499H65.1622C55.2684 14.3135 51.3873 18.3709 49.8784 23.5517C45.1934 39.478 52.8139 49.5596 69.9279 49.5596C70.1898 40.4021 66.6498 31.7455 62.0653 25.9403C62.0653 21.743 66.8919 20.8798 71.3957 20.6985C73.3066 20.6178 74.8139 19.0512 74.8139 17.1436V16.8834C74.8155 14.9362 73.2275 13.3499 71.2557 13.3499Z" fill="#D83131"/>
<path d="M71.2556 13.3499H70.7433C70.7516 13.4454 70.7565 13.5426 70.7565 13.6398V13.9314C70.7565 16.0597 68.8934 17.8075 66.5328 17.8965C66.4488 17.8998 66.3631 17.903 66.2791 17.9063C60.1412 18.1551 56.5039 24.8201 59.5465 30.1558C62.6879 35.6661 64.7718 42.2933 64.7339 49.2137C66.3532 49.4426 68.0862 49.5596 69.9295 49.5596C70.1915 40.4021 66.6514 31.7455 62.0669 25.9403C62.0669 21.743 66.8935 20.8798 71.3973 20.6985C73.3082 20.6178 74.8155 19.0512 74.8155 17.1436V16.8834C74.8155 14.9362 73.2275 13.3499 71.2556 13.3499Z" fill="#CC2E2E"/>
<path d="M33.158 23.3821C34.0443 25.8761 34.438 29.3437 33.873 34.0666C36.4346 27.8974 37.7952 20.384 41.6533 13.7008L41.2925 8.52984C41.0915 5.83812 38.698 3.89099 36.0244 4.25175C34.2947 4.49226 32.9274 5.27638 32.1433 6.90229L32.0757 6.9863C33.532 11.6845 33.4134 18.0349 33.158 23.3821Z" fill="#8AAADC"/>
<path d="M24.8638 18.2292L24.8655 18.2325C24.8984 18.2128 24.9314 18.1897 24.9643 18.1699C26.7154 17.1008 31.1747 17.7993 33.1581 23.3821C33.5205 15.8143 33.6078 6.23676 29.3478 2.1827C27.8389 0.736355 25.6677 0.415128 23.7782 1.37881L23.7387 1.39858C22.4522 2.04103 21.5873 3.12497 21.2249 4.51201C20.8625 5.91718 21.1046 7.26304 21.9085 8.46888C23.8178 11.3006 24.8638 14.5541 24.8638 18.2292Z" fill="#8AAADC"/>
<path d="M38.5909 9.18877L39.2416 18.6625C39.9351 16.9806 40.7209 15.3168 41.6533 13.7008L41.2925 8.52984C41.0915 5.83812 38.698 3.89099 36.0244 4.25175C35.2963 4.35389 34.6324 4.55156 34.0493 4.86785C36.4181 4.91233 38.4097 6.74415 38.5909 9.18877Z" fill="#7398D4"/>
<path d="M29.3478 2.1827C27.8389 0.736355 25.6677 0.415128 23.7782 1.37881L23.7387 1.39858C23.6778 1.42988 23.6184 1.46118 23.5575 1.49412C24.6876 1.55013 25.7781 2.00644 26.6462 2.83998C30.0628 6.09179 30.6822 12.8985 30.6064 19.3708C31.5997 20.2604 32.5107 21.5585 33.1581 23.3804C33.5205 15.8159 33.6078 6.23676 29.3478 2.1827Z" fill="#7398D4"/>
<path d="M33.8746 34.0666C35.6998 18.7712 27.4978 16.6248 24.9659 18.17C15.8958 23.6934 9.92258 35.3614 10.2652 46.5879C25.3234 47.6784 30.5882 41.977 33.8746 34.0666Z" fill="#E94444"/>
<path d="M51.8403 65.7874L44.5196 59.2904L44.4454 53.4852L51.2621 41.8766C50.6871 41.0315 50.1995 40.1238 49.8025 39.1552L47.1882 43.6079L41.1277 43.0363L40.2678 39.1157C40.1113 38.404 39.4096 37.9559 38.6979 38.1108C37.9863 38.2673 37.5366 38.969 37.6931 39.6807L38.525 43.4761L35.9667 44.5732C35.2979 44.8599 34.9882 45.6341 35.2748 46.3046C35.489 46.8037 35.9749 47.1035 36.4872 47.1035C36.6602 47.1035 36.8365 47.0689 37.0061 46.9964L40.2563 45.6028L45.7155 46.1168L42.1952 52.113L35.3193 55.294L31.4382 52.543C31.0676 52.281 30.5882 52.2267 30.1698 52.4013L25.0614 54.5296C24.3893 54.8097 24.0714 55.5806 24.3514 56.2527C24.6315 56.9248 25.4024 57.2428 26.0745 56.9627L30.5091 55.1144L33.7263 57.396L32.4579 64.0347C32.3212 64.7496 32.7907 65.4398 33.5056 65.5766C33.5896 65.593 33.672 65.5996 33.7543 65.5996C34.3737 65.5996 34.9272 65.1598 35.0475 64.5289L36.3489 57.7221L41.8328 55.1853L42.0486 71.8907C42.0585 72.6123 42.6466 73.1921 43.3665 73.1921H43.3829C44.111 73.1822 44.6925 72.5859 44.6843 71.8578L44.569 62.8568L50.0941 67.7593C50.3445 67.9816 50.6575 68.092 50.9688 68.092C51.3329 68.092 51.6953 67.9421 51.9556 67.6489C52.4349 67.1036 52.3855 66.2701 51.8403 65.7874Z" fill="#E94444"/>
</g>
<defs>
<clipPath id="clip0_28_94">
<rect width="84.3428" height="84.3428" fill="white" transform="translate(0.361572 0.828613)"/>
</clipPath>
</defs>
</svg>
