<svg width="86" height="86" viewBox="0 0 86 86" fill="none" xmlns="http://www.w3.org/2000/svg">
<g clip-path="url(#clip0_28_110)">
<path d="M5.6475 7.35099C9.99379 -1.24983 21.4326 -0.69007 27.8843 5.22496C31.0426 8.12046 36.6532 6.14894 40.4415 6.49505C46.0078 7.00357 48.9826 12.6114 54.4691 13.678C108.215 24.1268 75.1936 105.881 27.4229 80.2072C16.1329 74.1393 21.5837 59.1389 19.4011 48.7859C16.4264 34.6754 -2.31317 23.1046 5.6475 7.35099Z" fill="url(#paint0_linear_28_110)"/>
<path d="M44.179 11.8047V68.1743C44.179 74.4473 49.2643 79.5326 55.5373 79.5326C61.8102 79.5326 66.8955 74.4473 66.8955 68.1743V11.8047H44.179Z" fill="#FFE8DC"/>
<path d="M66.8955 11.8047H44.179V19.1188H66.8955V11.8047Z" fill="#FFD6BB"/>
<path d="M44.179 11.8047V43.8105C48.5378 42.5486 52.4321 39.6642 54.88 35.424C59.5254 27.3801 57.3361 17.2656 50.1126 11.8047H44.179Z" fill="#FFD6BB"/>
<path d="M44.1792 46.6497C45.6927 47.9865 47.68 48.7991 49.8581 48.7991C52.0362 48.7991 54.0235 47.9863 55.5371 46.6497C57.0507 45.313 59.038 44.5002 61.2161 44.5002C63.3942 44.5002 65.3815 45.313 66.895 46.6497V68.1744C66.895 74.4472 61.8099 79.5323 55.5371 79.5323C49.2643 79.5323 44.1792 74.4472 44.1792 68.1744V46.6497Z" fill="#FF9D33"/>
<path d="M66.8949 46.6497C65.3813 47.9865 63.394 48.7991 61.2159 48.7991C59.0378 48.7991 57.0505 47.9863 55.5369 46.6497C54.0234 45.313 52.036 44.5002 49.858 44.5002C47.6799 44.5002 45.6925 45.313 44.179 46.6497V68.1744C44.179 74.4472 49.2641 79.5323 55.5369 79.5323C61.8098 79.5323 66.8949 74.4472 66.8949 68.1744V46.6497Z" fill="#FFC599"/>
<path d="M42.8461 15.1646H68.2279C69.1787 15.1646 69.9495 14.3938 69.9495 13.443V10.7718C69.9495 9.82101 69.1787 9.05023 68.2279 9.05023H42.8461C41.8953 9.05023 41.1245 9.82101 41.1245 10.7718V13.4431C41.1245 14.394 41.8953 15.1646 42.8461 15.1646Z" fill="white"/>
<path d="M32.2344 38.4673L28.5985 36.368L24.209 43.9707L27.8449 46.07L32.2344 38.4673Z" fill="#D9D9FF"/>
<path d="M26.6987 39.6566C27.6838 40.5709 28.7859 41.3913 29.9999 42.0914C30.0362 42.1112 30.0708 42.1326 30.107 42.1523L32.2337 38.4673L28.5964 36.3686L26.6987 39.6566Z" fill="#B3B3FF"/>
<path d="M39.1067 40.5779C29.0475 40.5779 20.8928 32.4233 20.8928 22.364C20.8928 12.3047 29.0475 4.15009 39.1067 4.15009C49.166 4.15009 57.3206 12.3047 57.3206 22.364C57.3206 32.4233 49.166 40.5779 39.1067 40.5779Z" fill="#9494FF"/>
<path d="M31.6083 35.3498C34.6081 37.0828 37.9587 37.6594 41.1446 37.2195L48.9216 11.0255C48.2149 10.4144 47.4423 9.8625 46.6039 9.37819C39.4331 5.23683 30.2608 7.69463 26.1211 14.8671C21.9797 22.0378 24.4375 31.2101 31.6083 35.3498Z" fill="#D9D9FF"/>
<path d="M41.1446 13.9693V37.2196C45.5743 36.6101 49.6843 34.032 52.0927 29.861C55.0563 24.7296 54.6411 18.5719 51.5343 13.9693H41.1446Z" fill="#FFE8DC"/>
<path d="M41.1447 13.9693V21.5124H54.0794C53.9246 18.8289 53.0498 16.2146 51.5343 13.9693H41.1447Z" fill="#FFD6BB"/>
<path d="M37.8813 12.8656V15.7204C37.8813 16.7351 38.7049 17.5588 39.7213 17.5588H53.3101C52.4716 15.0763 50.9841 12.8063 48.9216 11.0255H39.7213C38.7049 11.0255 37.8813 11.8492 37.8813 12.8656Z" fill="white"/>
<path d="M16.537 54.4027L19.0447 56.5998L22.6452 57.9298L28.9215 47.0591C29.4075 46.219 29.1192 45.1433 28.2791 44.659L25.2134 42.8898C24.3733 42.4038 23.2976 42.6921 22.8132 43.5322L16.537 54.4027Z" fill="#FFAB66"/>
<path d="M13.7975 59.147L16.537 61.535L19.9057 62.6723L21.1165 60.5769L18.5139 57.9297L15.0083 57.05L13.7975 59.147Z" fill="#FFAB66"/>
<path d="M22.6468 57.9286L16.5385 54.4018L15.01 57.0491L21.1184 60.5759L22.6468 57.9286Z" fill="#FFD6BB"/>
<path d="M19.9067 62.6731L17.6199 66.6339C17.1346 67.4744 16.0599 67.7623 15.2194 67.277L12.1544 65.5075C11.314 65.0222 11.026 63.9475 11.5113 63.107L13.7981 59.1462L19.9067 62.6731Z" fill="#FFD6BB"/>
<path d="M60.4436 68.632H62.1837C62.6387 68.632 63.0074 68.2632 63.0074 67.8083C63.0074 67.3535 62.6387 66.9847 62.1837 66.9847H60.4436C59.9886 66.9847 59.62 67.3535 59.62 67.8083C59.62 68.2632 59.9886 68.632 60.4436 68.632Z" fill="#8383FF"/>
<path d="M60.4436 62.256H62.1837C62.6387 62.256 63.0074 61.8872 63.0074 61.4324C63.0074 60.9775 62.6387 60.6087 62.1837 60.6087H60.4436C59.9886 60.6087 59.62 60.9775 59.62 61.4324C59.62 61.8872 59.9886 62.256 60.4436 62.256Z" fill="#8383FF"/>
<path d="M60.4436 55.88H62.1837C62.6387 55.88 63.0074 55.5112 63.0074 55.0564C63.0074 54.6016 62.6387 54.2327 62.1837 54.2327H60.4436C59.9886 54.2327 59.62 54.6016 59.62 55.0564C59.62 55.5112 59.9886 55.88 60.4436 55.88Z" fill="#8383FF"/>
<path d="M60.4436 49.5041H62.1837C62.6387 49.5041 63.0074 49.1353 63.0074 48.6805C63.0074 48.2256 62.6387 47.8568 62.1837 47.8568H60.4436C59.9886 47.8568 59.62 48.2256 59.62 48.6805C59.62 49.1353 59.9886 49.5041 60.4436 49.5041Z" fill="#8383FF"/>
<path d="M60.4436 43.1282H62.1837C62.6387 43.1282 63.0074 42.7593 63.0074 42.3045C63.0074 41.8497 62.6387 41.4808 62.1837 41.4808H60.4436C59.9886 41.4808 59.62 41.8497 59.62 42.3045C59.62 42.7593 59.9886 43.1282 60.4436 43.1282Z" fill="#8383FF"/>
<path d="M60.4436 36.7522H62.1837C62.6387 36.7522 63.0074 36.3834 63.0074 35.9286C63.0074 35.4738 62.6387 35.1049 62.1837 35.1049H60.4436C59.9886 35.1049 59.62 35.4738 59.62 35.9286C59.62 36.3834 59.9886 36.7522 60.4436 36.7522Z" fill="#8383FF"/>
<path d="M60.4436 30.3763H62.1837C62.6387 30.3763 63.0074 30.0074 63.0074 29.5526C63.0074 29.0978 62.6387 28.7289 62.1837 28.7289H60.4436C59.9886 28.7289 59.62 29.0978 59.62 29.5526C59.62 30.0074 59.9886 30.3763 60.4436 30.3763Z" fill="#8383FF"/>
<path d="M35.7019 56.8795H38.7631C39.2181 56.8795 39.5868 56.5107 39.5868 56.0558C39.5868 55.601 39.2181 55.2322 38.7631 55.2322H35.7019C35.2469 55.2322 34.8782 55.601 34.8782 56.0558C34.8782 56.5107 35.2471 56.8795 35.7019 56.8795Z" fill="#FF9D33"/>
<path d="M29.1126 60.237H38.7631C39.2181 60.237 39.5868 59.8682 39.5868 59.4134C39.5868 58.9586 39.2181 58.5897 38.7631 58.5897H29.1126C28.6576 58.5897 28.2889 58.9586 28.2889 59.4134C28.2889 59.8682 28.6578 60.237 29.1126 60.237Z" fill="#FF9D33"/>
<path d="M29.1126 63.5945H38.7631C39.2181 63.5945 39.5868 63.2256 39.5868 62.7708C39.5868 62.316 39.2181 61.9471 38.7631 61.9471H29.1126C28.6576 61.9471 28.2889 62.316 28.2889 62.7708C28.2889 63.2256 28.6578 63.5945 29.1126 63.5945Z" fill="#FF9D33"/>
<path d="M28.6326 21.6213H35.3179C35.7727 21.6213 36.1415 21.2524 36.1415 20.7976C36.1415 20.3428 35.7727 19.9739 35.3179 19.9739H28.6326C28.1777 19.9739 27.8089 20.3428 27.8089 20.7976C27.8089 21.2524 28.1777 21.6213 28.6326 21.6213Z" fill="#FFAB66"/>
<path d="M38.2831 21.6213C37.8282 21.6213 37.4594 21.2525 37.4594 20.7976C37.4594 20.3427 37.8282 19.9739 38.2831 19.9739C38.738 19.9739 39.1067 20.3427 39.1067 20.7976C39.1067 21.2525 38.738 21.6213 38.2831 21.6213Z" fill="#FF6C6C"/>
<path d="M38.2831 24.9788C37.8282 24.9788 37.4594 24.61 37.4594 24.1551C37.4594 23.7002 37.8282 23.3315 38.2831 23.3315C38.738 23.3315 39.1067 23.7002 39.1067 24.1551C39.1067 24.61 38.738 24.9788 38.2831 24.9788Z" fill="#FF6C6C"/>
<path d="M31.9272 24.9788H35.3179C35.7727 24.9788 36.1415 24.61 36.1415 24.1551C36.1415 23.7003 35.7727 23.3315 35.3179 23.3315H31.9272C31.4724 23.3315 31.1035 23.7003 31.1035 24.1551C31.1035 24.61 31.4724 24.9788 31.9272 24.9788Z" fill="#FFAB66"/>
<path d="M74.0444 74.9852C74.4994 74.9852 74.8681 74.6164 74.8681 74.1615C74.8681 73.5863 75.3362 73.1183 75.9115 73.1183C76.3665 73.1183 76.7351 72.7495 76.7351 72.2946C76.7351 71.8398 76.3665 71.471 75.9115 71.471C75.3362 71.471 74.8681 71.003 74.8681 70.4277C74.8681 69.9729 74.4994 69.6041 74.0444 69.6041C73.5894 69.6041 73.2207 69.9729 73.2207 70.4277C73.2207 71.003 72.7527 71.471 72.1775 71.471C71.7225 71.471 71.3538 71.8398 71.3538 72.2946C71.3538 72.7495 71.7225 73.1183 72.1775 73.1183C72.7527 73.1183 73.2207 73.5863 73.2207 74.1615C73.2207 74.6164 73.5896 74.9852 74.0444 74.9852Z" fill="#FFAB66"/>
<path d="M11.8525 48.4841C12.3075 48.4841 12.6761 48.1153 12.6761 47.6604C12.6761 47.0852 13.1441 46.6172 13.7194 46.6172C14.1744 46.6172 14.543 46.2484 14.543 45.7935C14.543 45.3387 14.1744 44.9699 13.7194 44.9699C13.1441 44.9699 12.6761 44.5019 12.6761 43.9266C12.6761 43.4718 12.3075 43.103 11.8525 43.103C11.3975 43.103 11.0288 43.4718 11.0288 43.9266C11.0288 44.5019 10.5606 44.9699 9.98539 44.9699C9.5304 44.9699 9.16173 45.3387 9.16173 45.7935C9.16173 46.2484 9.5304 46.6172 9.98539 46.6172C10.5606 46.6172 11.0288 47.0852 11.0288 47.6604C11.0288 48.1153 11.3975 48.4841 11.8525 48.4841Z" fill="#FF6C6C"/>
<path d="M18.8267 12.998C19.2817 12.998 19.6504 12.6292 19.6504 12.1744C19.6504 11.5991 20.1184 11.1311 20.6936 11.1311C21.1486 11.1311 21.5173 10.7623 21.5173 10.3075C21.5173 9.85262 21.1486 9.48379 20.6936 9.48379C20.1184 9.48379 19.6504 9.01579 19.6504 8.44054C19.6504 7.98572 19.2817 7.61688 18.8267 7.61688C18.3717 7.61688 18.0031 7.98572 18.0031 8.44054C18.0031 9.01579 17.5349 9.48379 16.9597 9.48379C16.5047 9.48379 16.136 9.85262 16.136 10.3075C16.136 10.7623 16.5047 11.1311 16.9597 11.1311C17.5349 11.1311 18.0031 11.5991 18.0031 12.1744C18.0031 12.6292 18.3717 12.998 18.8267 12.998Z" fill="#FF6C6C"/>
<path d="M14.1085 40.8255C14.3192 40.8255 14.5302 40.7452 14.6908 40.5844L15.5911 39.6843L16.4913 40.5844C16.8127 40.9059 17.3346 40.9059 17.656 40.5844C17.9777 40.2627 17.9777 39.7411 17.656 39.4196L16.1734 37.937C15.852 37.6154 15.3301 37.6154 15.0087 37.937L13.5262 39.4196C13.2044 39.7413 13.2044 40.2628 13.5262 40.5844C13.6869 40.7452 13.8978 40.8255 14.1085 40.8255Z" fill="#8383FF"/>
<path d="M71.0774 50.2454C71.2881 50.2454 71.4991 50.165 71.6597 50.0042L72.56 49.1041L73.4603 50.0042C73.7817 50.3258 74.3035 50.3258 74.6249 50.0042C74.9466 49.6825 74.9466 49.161 74.6249 48.8394L73.1423 47.3568C72.8209 47.0353 72.2991 47.0353 71.9777 47.3568L70.4951 48.8394C70.1734 49.1611 70.1734 49.6827 70.4951 50.0042C70.6557 50.165 70.8666 50.2454 71.0774 50.2454Z" fill="#8383FF"/>
<path d="M11.5113 63.1071L22.8131 43.532C23.2419 42.7893 24.1309 42.4791 24.9119 42.7517L28.2423 36.9833C20.9078 31.5465 18.6584 21.3537 23.333 13.2571C28.3626 4.54558 39.5021 1.56063 48.2136 6.5904C49.4384 7.29759 50.55 8.12537 51.542 9.05034H68.2279C69.1787 9.05034 69.9495 9.82112 69.9495 10.772V13.4432C69.9495 14.3941 69.1787 15.1649 68.2279 15.1649H66.8955V68.1743C66.8955 74.4473 61.8103 79.5326 55.5373 79.5326C49.2643 79.5326 44.179 74.4473 44.179 68.1743V39.8567C40.2147 41.0057 35.8679 40.8131 31.8784 39.0825L28.5481 44.8509C29.1747 45.391 29.3506 46.316 28.9217 47.0588L17.6199 66.6339C17.1346 67.4744 16.06 67.7623 15.2194 67.277L12.1544 65.5075C11.3141 65.0223 11.026 63.9476 11.5113 63.1071Z" fill="url(#paint1_linear_28_110)"/>
</g>
<defs>
<linearGradient id="paint0_linear_28_110" x1="69.5671" y1="75.058" x2="9.1838" y2="3.09597" gradientUnits="userSpaceOnUse">
<stop stop-color="white" stop-opacity="0"/>
<stop offset="0.2532" stop-color="#EEEEFF" stop-opacity="0.403"/>
<stop offset="0.629" stop-color="#D9D9FF"/>
</linearGradient>
<linearGradient id="paint1_linear_28_110" x1="40.6125" y1="79.5326" x2="40.6125" y2="4.14709" gradientUnits="userSpaceOnUse">
<stop stop-color="#FF4D4D" stop-opacity="0.4"/>
<stop offset="0.1463" stop-color="#FF4D4D" stop-opacity="0.342"/>
<stop offset="1" stop-color="#FF4D4D" stop-opacity="0"/>
</linearGradient>
<clipPath id="clip0_28_110">
<rect width="84.3428" height="84.3428" fill="white" transform="matrix(-1 0 0 1 85.0902 0.828613)"/>
</clipPath>
</defs>
</svg>
