<svg width="55" height="59" viewBox="0 0 55 59" fill="none" xmlns="http://www.w3.org/2000/svg">
<path fill-rule="evenodd" clip-rule="evenodd" d="M27.2366 30.101C25.6654 29.213 17.088 24.927 2.15864 27.6852C1.90137 27.7327 1.71875 27.9529 1.71875 28.2155V54.45C1.71875 54.6154 1.78503 54.7577 1.91146 54.8636C2.0379 54.9697 2.18937 55.0097 2.35157 54.9802C17.1623 52.294 25.6726 56.5473 27.2368 57.4313C27.405 57.5263 27.5953 57.5262 27.7635 57.4312C29.328 56.5469 37.8383 52.2941 52.6484 54.9802C52.8105 55.0097 52.9622 54.9698 53.0886 54.8638C53.2151 54.7579 53.2814 54.6156 53.2814 54.4502V28.2155C53.2814 27.953 53.0986 27.7327 52.8414 27.6852C37.9121 24.927 29.3347 29.213 27.7634 30.101C27.5951 30.1961 27.4048 30.1961 27.2366 30.101Z" fill="#F0AC4C"/>
<path fill-rule="evenodd" clip-rule="evenodd" d="M27.1093 57.1287C25.6431 55.5676 19.8046 50.6161 5.52073 51.7321C5.36594 51.7444 5.2279 51.6966 5.11382 51.5909C4.99984 51.4851 4.94141 51.351 4.94141 51.1952V24.9461C4.94141 24.6641 5.15625 24.4306 5.43641 24.4085C19.782 23.2664 25.6404 28.2346 27.1094 29.7986C27.2147 29.9105 27.3467 29.9677 27.5 29.9676C27.6534 29.9676 27.7853 29.9105 27.8906 29.7985C29.3597 28.2344 35.2183 23.2664 49.5635 24.4085C49.8439 24.4306 50.0585 24.6639 50.0585 24.9461V51.1951C50.0585 51.3508 50 51.4849 49.8861 51.5908C49.772 51.6966 49.6341 51.7443 49.4792 51.732C35.1953 50.6161 29.3568 55.5675 27.8906 57.1286C27.7853 57.2406 27.6533 57.2977 27.4999 57.2977C27.3465 57.2977 27.2146 57.2406 27.1093 57.1287Z" fill="#EFE2DD"/>
<path fill-rule="evenodd" clip-rule="evenodd" d="M27.0439 56.7971C22.0597 48.7456 11.2843 48.6271 8.71997 48.7189C8.56883 48.7242 8.43691 48.6734 8.3281 48.5679C8.21938 48.4626 8.16406 48.3321 8.16406 48.1803V21.9289C8.16406 21.6392 8.39233 21.4013 8.68076 21.3903C11.1727 21.2962 22.0339 21.374 27.0439 29.4671C27.1446 29.63 27.3089 29.7223 27.5 29.7222C27.691 29.722 27.855 29.6303 27.9558 29.4674C32.966 21.3736 43.8281 21.2961 46.3195 21.3903C46.6078 21.4015 46.8358 21.6393 46.8358 21.9289V48.1803C46.8358 48.332 46.7806 48.4626 46.6719 48.5679C46.5631 48.6734 46.4312 48.7242 46.28 48.7189C43.7157 48.6271 32.9403 48.7456 27.9561 56.7971C27.8552 56.96 27.6911 57.0517 27.5 57.0517C27.3089 57.0518 27.1448 56.9601 27.0439 56.7971Z" fill="#F9F3F1"/>
<path fill-rule="evenodd" clip-rule="evenodd" d="M24.5025 34.9406C24.7262 35.1347 24.7505 35.4741 24.5571 35.6985C24.3636 35.923 24.0254 35.9474 23.8018 35.7533C22.1688 34.3419 20.3059 33.3601 18.4509 32.6795C15.9118 31.7478 13.3863 31.3794 11.4763 31.2456C11.1809 31.2259 10.9573 30.9695 10.977 30.673C10.9967 30.3764 11.2522 30.1521 11.5476 30.1718C13.5332 30.3109 16.1623 30.6951 18.8159 31.6689C20.7812 32.39 22.7596 33.4343 24.5025 34.9406ZM24.5025 38.3038C22.7596 36.7975 20.7812 35.7533 18.8158 35.0321C16.1623 34.0584 13.5331 33.6742 11.5475 33.5351C11.2521 33.5154 10.9966 33.7397 10.9769 34.0361C10.9573 34.3327 11.1808 34.5891 11.4762 34.6088C13.3861 34.7426 15.9117 35.1109 18.4507 36.0426C20.3057 36.7233 22.1687 37.705 23.8017 39.1164C24.0253 39.3106 24.3635 39.2861 24.557 39.0617C24.7505 38.8373 24.7262 38.498 24.5025 38.3038ZM24.5025 48.3935C24.7262 48.5876 24.7505 48.927 24.5571 49.1514C24.3636 49.3759 24.0254 49.4003 23.8018 49.2062C22.1688 47.7948 20.3059 46.813 18.4508 46.1324C15.9117 45.2007 13.3862 44.8323 11.4763 44.6985C11.1809 44.6788 10.9573 44.4223 10.977 44.1259C10.9967 43.8294 11.2522 43.605 11.5476 43.6247C13.5332 43.7637 16.1623 44.148 18.8159 45.1217C20.7812 45.8429 22.7596 46.8872 24.5025 48.3935ZM24.5025 45.0303C22.7596 43.5239 20.7812 42.4798 18.8159 41.7586C16.1623 40.7849 13.5332 40.4005 11.5476 40.2616C11.2522 40.2419 10.9967 40.4662 10.977 40.7628C10.9574 41.0592 11.1809 41.3157 11.4763 41.3354C13.3862 41.4691 15.9117 41.8375 18.4509 42.7692C20.3059 43.4499 22.1689 44.4316 23.8018 45.843C24.0254 46.0372 24.3636 46.0127 24.5571 45.7883C24.7505 45.5638 24.7262 45.2245 24.5025 45.0303ZM24.5025 41.6671C24.7262 41.8612 24.7505 42.2006 24.5571 42.425C24.3636 42.6495 24.0254 42.6739 23.8018 42.4798C22.1688 41.0684 20.3059 40.0866 18.4508 39.406C15.9117 38.4743 13.3862 38.1059 11.4763 37.9721C11.1809 37.9524 10.9573 37.696 10.977 37.3995C10.9967 37.1031 11.2522 36.8786 11.5476 36.8985C13.5332 37.0374 16.1623 37.4218 18.8159 38.3955C20.7812 39.1165 22.7596 40.1607 24.5025 41.6671ZM24.5025 31.5774C22.7596 30.0712 20.7812 29.0269 18.8158 28.3057C16.1622 27.332 13.5331 26.9478 11.5475 26.8087C11.2521 26.789 10.9966 27.0133 10.9769 27.3099C10.9573 27.6063 11.1808 27.8628 11.4762 27.8825C13.3861 28.0162 15.9116 28.3846 18.4507 29.3162C20.3057 29.9969 22.1687 30.9787 23.8017 32.39C24.0253 32.5842 24.3635 32.5597 24.557 32.3353C24.7505 32.1109 24.7262 31.7716 24.5025 31.5774Z" fill="#D5D4D3"/>
<path fill-rule="evenodd" clip-rule="evenodd" d="M46.8359 48.1803V26.9042V24.2596V21.9289C46.8359 21.6393 46.6079 21.4014 46.3196 21.3903C43.8281 21.2961 32.9659 21.3736 27.9559 29.4674C27.8551 29.6303 27.6911 29.722 27.5 29.7222V29.9677V30.1724V57.0519C27.6911 57.0519 27.8554 56.9602 27.9561 56.7973C32.9403 48.7458 43.7157 48.6273 46.28 48.7191C46.4312 48.7244 46.5631 48.6736 46.6719 48.5682C46.7807 48.4626 46.8359 48.3321 46.8359 48.1803Z" fill="#F4EBE7"/>
<path fill-rule="evenodd" clip-rule="evenodd" d="M31.1982 35.7533C30.9745 35.9475 30.6364 35.923 30.4429 35.6985C30.2494 35.4741 30.2738 35.1347 30.4975 34.9406C32.2404 33.4342 34.2188 32.3901 36.1841 31.6689C38.8377 30.6951 41.4668 30.3109 43.4523 30.1719C43.7478 30.1521 44.0033 30.3765 44.023 30.673C44.0426 30.9695 43.8191 31.2259 43.5236 31.2457C41.6137 31.3793 39.0882 31.7478 36.549 32.6795C34.6941 33.3601 32.8312 34.342 31.1982 35.7533ZM31.1982 39.1166C32.8312 37.7051 34.6941 36.7234 36.5492 36.0427C39.0883 35.111 41.6138 34.7427 43.5237 34.6089C43.8191 34.5892 44.0427 34.3327 44.0231 34.0363C44.0034 33.7398 43.7479 33.5154 43.4525 33.5352C41.4669 33.6742 38.8378 34.0585 36.1842 35.0322C34.2188 35.7534 32.2404 36.7976 30.4975 38.304C30.2738 38.4981 30.2494 38.8375 30.4429 39.0619C30.6364 39.2862 30.9745 39.3107 31.1982 39.1166ZM31.1982 49.2062C30.9745 49.4003 30.6364 49.3759 30.4429 49.1514C30.2494 48.927 30.2738 48.5876 30.4975 48.3935C32.2404 46.8872 34.2188 45.8429 36.1842 45.1218C38.8378 44.148 41.4669 43.7637 43.4525 43.6247C43.7479 43.605 44.0034 43.8293 44.0231 44.1259C44.0427 44.4224 43.8192 44.6788 43.5237 44.6985C41.6138 44.8322 39.0883 45.2007 36.5492 46.1324C34.6941 46.813 32.8312 47.7948 31.1982 49.2062ZM31.1982 45.8431C32.8312 44.4316 34.6941 43.4499 36.5491 42.7692C39.0883 41.8375 41.6137 41.4692 43.5237 41.3354C43.8191 41.3157 44.0427 41.0592 44.0231 40.7628C44.0034 40.4663 43.7479 40.2419 43.4525 40.2616C41.4669 40.4006 38.8378 40.7849 36.1842 41.7586C34.2189 42.4798 32.2404 43.524 30.4976 45.0303C30.2739 45.2245 30.2496 45.5639 30.443 45.7883C30.6364 46.0126 30.9745 46.0372 31.1982 45.8431ZM31.1982 42.4798C30.9745 42.674 30.6364 42.6495 30.4429 42.425C30.2494 42.2006 30.2738 41.8612 30.4975 41.6671C32.2404 40.1608 34.2188 39.1166 36.1842 38.3954C38.8378 37.4216 41.4669 37.0373 43.4525 36.8984C43.7479 36.8786 44.0034 37.103 44.0231 37.3994C44.0427 37.696 43.8192 37.9523 43.5237 37.972C41.6138 38.1058 39.0883 38.4742 36.5492 39.4059C34.6941 40.0866 32.8312 41.0684 31.1982 42.4798ZM31.1982 32.3902C32.8312 30.9787 34.6941 29.997 36.5492 29.3164C39.0883 28.3846 41.6138 28.0163 43.5237 27.8826C43.8191 27.8629 44.0427 27.6064 44.0231 27.31C44.0034 27.0134 43.7479 26.7891 43.4525 26.8088C41.4669 26.9479 38.8378 27.3321 36.1842 28.3058C34.2188 29.027 32.2404 30.0713 30.4975 31.5776C30.2738 31.7717 30.2494 32.1111 30.4429 32.3355C30.6364 32.5597 30.9745 32.5843 31.1982 32.3902Z" fill="#D5D4D3"/>
<path fill-rule="evenodd" clip-rule="evenodd" d="M37.7149 14.4329C37.4183 14.4329 37.1778 14.1915 37.1778 13.8939C37.1778 13.5963 37.4183 13.3549 37.7149 13.3549H40.2638C40.5604 13.3549 40.8009 13.5963 40.8009 13.8939C40.8009 14.1915 40.5604 14.4329 40.2638 14.4329H37.7149ZM35.1027 7.02652C34.893 7.23695 34.5529 7.23695 34.3433 7.02652C34.1336 6.81609 34.1336 6.4748 34.3433 6.26437L36.1457 4.45571C36.3554 4.24528 36.6955 4.24528 36.9052 4.45571C37.1149 4.66613 37.1149 5.00743 36.9052 5.21785L35.1027 7.02652ZM28.0371 3.643C28.0371 3.94064 27.7965 4.182 27.5 4.182C27.2034 4.182 26.9628 3.94064 26.9628 3.643V1.08502C26.9628 0.787384 27.2034 0.546021 27.5 0.546021C27.7965 0.546021 28.0371 0.787384 28.0371 1.08502V3.643ZM20.6566 6.26427C20.8663 6.47469 20.8663 6.81599 20.6566 7.02641C20.447 7.23684 20.1069 7.23684 19.8972 7.02641L18.0948 5.21774C17.8852 5.00732 17.8852 4.66602 18.0948 4.4556C18.3045 4.24517 18.6446 4.24517 18.8543 4.4556L20.6566 6.26427ZM17.285 13.3549C17.5816 13.3549 17.8221 13.5963 17.8221 13.8939C17.8221 14.1915 17.5816 14.4329 17.285 14.4329H14.7361C14.4395 14.4329 14.199 14.1915 14.199 13.8939C14.199 13.5963 14.4395 13.3549 14.7361 13.3549H17.285Z" fill="#F8C963"/>
<path fill-rule="evenodd" clip-rule="evenodd" d="M27.5 31.7659C25.3781 31.7659 23.6966 29.9852 23.6966 27.8089V23.8519C23.6966 19.1193 20.1721 19.1245 20.1721 13.8941C20.1721 9.60804 23.4529 6.13354 27.5 6.13354C31.5471 6.13354 34.8279 9.60804 34.8279 13.8941C34.8279 19.1246 31.3034 19.1193 31.3034 23.8519V27.8089C31.3034 29.9852 29.622 31.7659 27.5 31.7659Z" fill="#FAD97F"/>
<path fill-rule="evenodd" clip-rule="evenodd" d="M28.0371 23.8517C28.0371 24.1493 27.7966 24.3907 27.5 24.3907C27.2034 24.3907 26.9629 24.1493 26.9629 23.8517V13.8939C26.9629 13.5962 27.2034 13.3549 27.5 13.3549C27.7966 13.3549 28.0371 13.5962 28.0371 13.8939V23.8517Z" fill="#F8C963"/>
<path fill-rule="evenodd" clip-rule="evenodd" d="M31.3033 27.8088V23.8518C28.7677 23.8518 26.2321 23.8518 23.6965 23.8518V27.8088C23.6965 29.9852 25.3779 31.7658 27.4999 31.7658C29.6219 31.7658 31.3033 29.9852 31.3033 27.8088Z" fill="#7A8C98"/>
<path fill-rule="evenodd" clip-rule="evenodd" d="M27.4999 27.8088H23.6965C23.6965 29.9852 25.3779 31.7658 27.4999 31.7658C29.6219 31.7658 31.3033 29.9852 31.3033 27.8088H27.4999Z" fill="#8D9CA8"/>
</svg>
