<svg width="590" height="599" viewBox="0 0 590 599" fill="none" xmlns="http://www.w3.org/2000/svg">
<g clip-path="url(#clip0_71_77)">
<path d="M276.171 0.770706C270.986 2.09967 261.414 7.01685 258.356 9.94058C256.893 11.1367 254.101 13.6617 252.107 15.5222C248.252 18.8447 242.801 26.5527 237.749 35.4568C235.621 39.1779 234.957 43.2977 234.558 56.3216C234.026 71.4718 234.292 72.9337 237.483 79.9772C242.535 91.0076 253.703 105.228 258.622 106.689C260.217 107.088 262.743 108.55 264.206 109.746C265.668 110.942 270.454 113.467 274.842 115.195C289.732 121.175 307.681 119.182 323.103 110.012C335.467 102.703 340.785 96.7222 349.294 80.7746C353.017 73.731 353.283 72.535 353.15 57.3847C353.15 41.57 353.017 41.3042 348.497 33.7291C346.103 29.4764 343.179 24.5592 342.248 22.8316C339.988 18.446 327.756 8.34582 319.912 3.96023C314.062 0.903603 311.802 0.504913 296.779 0.106216C287.605 -0.159576 278.431 0.106216 276.171 0.770706Z" fill="#F14241"/>
<path d="M123.278 45.6898C119.555 47.5504 115.567 50.607 114.237 52.6004C113.041 54.461 110.249 58.7137 107.989 62.0361C104.532 67.2191 104 69.2126 104 77.4521C104 84.4957 104.532 87.4194 106.127 88.6155C107.191 89.6786 109.052 92.4695 109.983 94.8616C111.046 97.3867 116.63 104.032 122.347 109.613C128.064 115.195 162.631 149.482 199.193 185.63C283.218 268.823 290.663 276 293.588 276C296.38 276 295.582 276.797 372.694 200.249C407.66 165.563 441.429 131.94 447.944 125.561C470.412 103.234 475.863 96.988 480.251 88.4826C483.708 81.7048 484.372 79.0469 483.84 74.6613C483.043 69.2126 477.725 58.0492 474.268 54.461C473.204 53.3978 472.274 51.936 472.274 51.2715C472.274 50.607 468.684 48.3478 464.297 46.0885C454.192 40.9055 441.296 40.5069 433.053 44.8924C426.938 48.2149 429.862 45.424 375.884 98.7156C353.283 121.175 331.745 141.375 328.022 143.635C321.109 148.153 301.831 153.735 293.588 153.735C286.674 153.735 266.067 148.286 262.344 145.495C260.616 144.166 258.489 143.103 257.558 143.103C256.628 143.103 234.558 121.84 208.499 95.9248C155.585 43.0319 154.255 42.1016 138.567 42.2345C132.053 42.2345 128.33 43.0319 123.278 45.6898Z" fill="#F14241"/>
</g>
<g clip-path="url(#clip1_71_77)">
<path d="M311.829 598.229C317.014 596.9 326.586 591.983 329.644 589.059C331.107 587.863 333.899 585.338 335.893 583.478C339.748 580.155 345.199 572.447 350.251 563.543C352.379 559.822 353.043 555.702 353.442 542.678C353.974 527.528 353.708 526.066 350.517 519.023C345.465 507.992 334.297 493.772 329.378 492.311C327.783 491.912 325.257 490.45 323.794 489.254C322.332 488.058 317.546 485.533 313.158 483.805C298.268 477.825 280.319 479.818 264.897 488.988C252.533 496.297 247.215 502.278 238.706 518.225C234.983 525.269 234.717 526.465 234.85 541.615C234.85 557.43 234.983 557.696 239.503 565.271C241.897 569.524 244.821 574.441 245.752 576.168C248.012 580.554 260.244 590.654 268.088 595.04C273.938 598.096 276.198 598.495 291.221 598.894C300.395 599.16 309.569 598.894 311.829 598.229Z" fill="#8FC945"/>
<path d="M464.722 553.31C468.445 551.45 472.433 548.393 473.763 546.4C474.959 544.539 477.751 540.286 480.011 536.964C483.468 531.781 484 529.787 484 521.548C484 514.504 483.468 511.581 481.873 510.385C480.809 509.321 478.948 506.531 478.017 504.138C476.954 501.613 471.37 494.968 465.653 489.387C459.936 483.805 425.369 449.518 388.807 413.37C304.782 330.177 297.337 323 294.412 323C291.62 323 292.418 322.203 215.306 398.751C180.34 433.437 146.571 467.06 140.056 473.439C117.588 495.766 112.137 502.012 107.749 510.517C104.292 517.295 103.628 519.953 104.16 524.339C104.957 529.787 110.275 540.951 113.732 544.539C114.796 545.602 115.726 547.064 115.726 547.729C115.726 548.393 119.316 550.652 123.703 552.911C133.808 558.094 146.704 558.493 154.947 554.108C161.062 550.785 158.138 553.576 212.116 500.284C234.717 477.825 256.255 457.625 259.978 455.365C266.891 450.847 286.169 445.265 294.412 445.265C301.326 445.265 321.933 450.714 325.656 453.505C327.384 454.834 329.511 455.897 330.442 455.897C331.372 455.897 353.442 477.16 379.501 503.075C432.415 555.968 433.745 556.898 449.433 556.765C455.947 556.765 459.67 555.968 464.722 553.31Z" fill="#8FC945"/>
</g>
<g clip-path="url(#clip2_71_77)">
<path d="M0.770798 317.829C2.09976 323.014 7.01694 332.586 9.94067 335.644C11.1367 337.107 13.6618 339.899 15.5223 341.893C18.8448 345.748 26.5528 351.199 35.4568 356.252C39.178 358.379 43.2978 359.044 56.3216 359.442C71.4719 359.974 72.9337 359.708 79.9773 356.517C91.0077 351.465 105.228 340.297 106.69 335.378C107.088 333.783 108.55 331.257 109.746 329.794C110.942 328.332 113.467 323.546 115.195 319.158C121.175 304.268 119.182 286.319 110.012 270.897C102.703 258.533 96.7223 253.215 80.7747 244.706C73.7311 240.983 72.5351 240.717 57.3848 240.85C41.5701 240.85 41.3043 240.983 33.7292 245.504C29.4765 247.897 24.5593 250.822 22.8317 251.752C18.4461 254.012 8.34591 266.244 3.96032 274.088C0.903694 279.938 0.505005 282.198 0.106308 297.221C-0.159485 306.395 0.106308 315.569 0.770798 317.829Z" fill="#5EB0D5"/>
<path d="M45.6899 470.722C47.5505 474.445 50.6071 478.433 52.6005 479.763C54.4611 480.959 58.7138 483.751 62.0362 486.011C67.2192 489.468 69.2126 490 77.4522 490C84.4958 490 87.4195 489.468 88.6156 487.873C89.6787 486.809 92.4696 484.948 94.8617 484.017C97.3868 482.954 104.032 477.37 109.613 471.653C115.195 465.936 149.482 431.369 185.63 394.807C268.824 310.782 276 303.337 276 300.412C276 297.62 276.797 298.418 200.249 221.306C165.563 186.34 131.94 152.571 125.561 146.056C103.234 123.588 96.9881 118.137 88.4827 113.749C81.7049 110.292 79.047 109.628 74.6614 110.16C69.2126 110.957 58.0493 116.275 54.4611 119.732C53.3979 120.796 51.9361 121.726 51.2716 121.726C50.6071 121.726 48.3479 125.316 46.0886 129.703C40.9056 139.808 40.5069 152.704 44.8925 160.947C48.215 167.062 45.4241 164.138 98.7157 218.116C121.175 240.717 141.376 262.255 143.635 265.978C148.153 272.891 153.735 292.169 153.735 300.412C153.735 307.326 148.286 327.933 145.495 331.656C144.166 333.384 143.103 335.511 143.103 336.442C143.103 337.372 121.84 359.442 95.9249 385.501C43.032 438.415 42.1017 439.745 42.2346 455.433C42.2346 461.947 43.032 465.67 45.6899 470.722Z" fill="#5EB0D5"/>
</g>
<g clip-path="url(#clip3_71_77)">
<path d="M589.229 283.171C587.9 277.986 582.983 268.414 580.059 265.356C578.863 263.893 576.338 261.101 574.478 259.107C571.155 255.252 563.447 249.801 554.543 244.748C550.822 242.621 546.702 241.956 533.678 241.558C518.528 241.026 517.066 241.292 510.023 244.483C498.992 249.535 484.772 260.703 483.31 265.622C482.912 267.217 481.45 269.743 480.254 271.206C479.058 272.668 476.533 277.454 474.805 281.842C468.825 296.732 470.818 314.681 479.988 330.103C487.297 342.467 493.278 347.785 509.225 356.294C516.269 360.017 517.465 360.283 532.615 360.15C548.43 360.15 548.696 360.017 556.271 355.496C560.524 353.103 565.441 350.178 567.168 349.248C571.554 346.988 581.654 334.756 586.04 326.912C589.096 321.062 589.495 318.802 589.894 303.779C590.159 294.605 589.894 285.431 589.229 283.171Z" fill="#FFDA22"/>
<path d="M544.31 130.278C542.45 126.555 539.393 122.567 537.399 121.237C535.539 120.041 531.286 117.249 527.964 114.989C522.781 111.532 520.787 111 512.548 111C505.504 111 502.581 111.532 501.384 113.127C500.321 114.191 497.53 116.052 495.138 116.983C492.613 118.046 485.968 123.63 480.387 129.347C474.805 135.064 440.518 169.631 404.37 206.193C321.176 290.218 314 297.663 314 300.588C314 303.38 313.203 302.582 389.751 379.694C424.437 414.66 458.06 448.429 464.439 454.944C486.766 477.412 493.012 482.863 501.517 487.251C508.295 490.708 510.953 491.372 515.339 490.84C520.787 490.043 531.951 484.725 535.539 481.268C536.602 480.204 538.064 479.274 538.728 479.274C539.393 479.274 541.652 475.684 543.911 471.297C549.094 461.192 549.493 448.296 545.107 440.053C541.785 433.938 544.576 436.862 491.284 382.884C468.825 360.283 448.624 338.745 446.365 335.022C441.847 328.109 436.265 308.831 436.265 300.588C436.265 293.674 441.714 273.067 444.505 269.344C445.834 267.616 446.897 265.489 446.897 264.558C446.897 263.628 468.16 241.558 494.075 215.499C546.968 162.585 547.898 161.255 547.765 145.567C547.765 139.053 546.968 135.33 544.31 130.278Z" fill="#FFDA22"/>
</g>
<defs>
<clipPath id="clip0_71_77">
<rect width="380" height="276" fill="white" transform="translate(104)"/>
</clipPath>
<clipPath id="clip1_71_77">
<rect width="380" height="276" fill="white" transform="matrix(-1 0 0 -1 484 599)"/>
</clipPath>
<clipPath id="clip2_71_77">
<rect width="380" height="276" fill="white" transform="matrix(0 -1 1 0 0 490)"/>
</clipPath>
<clipPath id="clip3_71_77">
<rect width="380" height="276" fill="white" transform="matrix(0 1 -1 0 590 111)"/>
</clipPath>
</defs>
</svg>
