<svg width="83" height="82" viewBox="0 0 83 82" fill="none" xmlns="http://www.w3.org/2000/svg">
<g clip-path="url(#clip0_28_187)">
<path d="M5.2991 45.9885C18.2431 18.4097 6.25013 5.57713 23.9025 0.921992C35.2917 -2.08152 50.2848 2.71204 56.8103 12.5501C64.7949 24.5881 69.2856 16.2708 76.4613 22.9344C90.102 35.6019 61.2169 70.6058 42.6367 79.5356C22.2826 89.3179 -4.95949 67.8457 5.2991 45.9885Z" fill="url(#paint0_linear_28_187)"/>
<path opacity="0.1" d="M7.09718 17.5155C7.09718 13.5384 10.3212 10.3143 14.2983 10.3143C18.2754 10.3143 21.4995 13.5384 21.4995 17.5155C21.4995 17.7907 21.4825 18.062 21.4524 18.3292H73.0659C73.9508 18.3292 74.6661 19.0445 74.6661 19.9295V58.3387C74.6661 59.2221 73.9508 59.939 73.0659 59.939H69.8094L75.6311 70.9505C76.6448 72.8678 75.2547 75.175 73.0859 75.175H30.4711C30.0293 75.175 29.671 74.8167 29.671 74.3749V72.1227L34.2069 68.2579V59.939H13.8501C12.9652 59.939 12.2498 59.2221 12.2498 58.3387V24.4193C9.27097 23.5366 7.09718 20.7806 7.09718 17.5155ZM52.7091 68.2581L53.0549 68.5527L57.6089 59.939H52.7091V68.2581Z" fill="#2626BC"/>
<path d="M52.709 55.0662H34.2069V65.0566H52.709V55.0662Z" fill="#4369FC"/>
<path d="M52.709 55.0662H34.2069V59.939H52.709V55.0662Z" fill="#2D58DF"/>
<path d="M12.2498 16.0888V54.4981C12.2498 55.3815 12.9651 56.0984 13.85 56.0984H73.0658C73.9508 56.0984 74.6661 55.3815 74.6661 54.4981V16.0888C74.6661 15.2039 73.9508 14.4886 73.0658 14.4886H13.85C12.9651 14.4886 12.2498 15.2039 12.2498 16.0888Z" fill="#D1DDFF"/>
<path d="M12.2499 16.0888V24.4198C12.8996 24.6118 13.5861 24.7158 14.2982 24.7158C18.2748 24.7158 21.4993 21.4929 21.4993 17.5147C21.4993 16.4345 21.2609 15.4087 20.8336 14.4886H13.8501C12.9652 14.4886 12.2499 15.2039 12.2499 16.0888Z" fill="#B6C4FF"/>
<path d="M13.8498 56.0977H73.0664C73.9502 56.0977 74.6666 55.3813 74.6666 54.4975V49.7595H12.2495V54.4975C12.2495 55.3812 12.966 56.0977 13.8498 56.0977Z" fill="#8298FD"/>
<path d="M34.2077 64.4168H52.7084L57.245 68.2822H29.671L34.2077 64.4168Z" fill="#8298FD"/>
<path d="M57.245 68.2822V70.5344C57.245 70.9763 56.8867 71.3346 56.4449 71.3346H30.4711C30.0293 71.3346 29.671 70.9763 29.671 70.5344V68.2822H57.245Z" fill="#B6C4FF"/>
<path d="M30.4711 46.613H70.4666C70.9084 46.613 71.2667 46.2547 71.2667 45.8129V19.2424C71.2667 18.8006 70.9084 18.4423 70.4666 18.4423H30.4711C30.0293 18.4423 29.671 18.8006 29.671 19.2424V45.8129C29.671 46.2547 30.0293 46.613 30.4711 46.613Z" fill="white"/>
<path d="M58.0471 22.5716H58.5347C58.9765 22.5716 59.3348 22.2135 59.3348 21.7715C59.3348 21.3295 58.9765 20.9714 58.5347 20.9714H58.0471C57.6052 20.9714 57.2469 21.3295 57.2469 21.7715C57.2469 22.2135 57.6052 22.5716 58.0471 22.5716Z" fill="#FFA7CE"/>
<path d="M48.6517 22.5716H49.1393C49.5811 22.5716 49.9394 22.2135 49.9394 21.7715C49.9394 21.3295 49.5811 20.9714 49.1393 20.9714H48.6517C48.2098 20.9714 47.8515 21.3295 47.8515 21.7715C47.8515 22.2135 48.2098 22.5716 48.6517 22.5716Z" fill="#FFA7CE"/>
<path d="M39.2564 22.5716H39.744C40.1858 22.5716 40.5441 22.2135 40.5441 21.7715C40.5441 21.3295 40.1858 20.9714 39.744 20.9714H39.2564C38.8146 20.9714 38.4563 21.3295 38.4563 21.7715C38.4563 22.2135 38.8146 22.5716 39.2564 22.5716Z" fill="#FFA7CE"/>
<path d="M64.5619 44.3399C65.0037 44.3399 65.362 43.9817 65.362 43.5398V21.5155C65.362 21.0735 65.0037 20.7153 64.5619 20.7153C64.12 20.7153 63.7617 21.0735 63.7617 21.5155V43.5398C63.7617 43.9817 64.12 44.3399 64.5619 44.3399Z" fill="#D1DDFF"/>
<path d="M55.1666 44.3399C55.6084 44.3399 55.9667 43.9817 55.9667 43.5398V21.5155C55.9667 21.0735 55.6084 20.7153 55.1666 20.7153C54.7248 20.7153 54.3665 21.0735 54.3665 21.5155V43.5398C54.3665 43.9817 54.7248 44.3399 55.1666 44.3399Z" fill="#D1DDFF"/>
<path d="M45.7712 44.3399C46.2131 44.3399 46.5714 43.9817 46.5714 43.5398V21.5155C46.5714 21.0735 46.2131 20.7153 45.7712 20.7153C45.3294 20.7153 44.9711 21.0735 44.9711 21.5155V43.5398C44.9711 43.9817 45.3294 44.3399 45.7712 44.3399Z" fill="#D1DDFF"/>
<path d="M36.376 44.3399C36.8178 44.3399 37.1761 43.9817 37.1761 43.5398V21.5155C37.1761 21.0735 36.8178 20.7153 36.376 20.7153C35.9341 20.7153 35.5758 21.0735 35.5758 21.5155V43.5398C35.5758 43.9817 35.9341 44.3399 36.376 44.3399Z" fill="#D1DDFF"/>
<path d="M33.3603 25.5503H67.5777C68.0195 25.5503 68.3778 25.1922 68.3778 24.7502C68.3778 24.3082 68.0195 23.9501 67.5777 23.9501H33.3603C32.9184 23.9501 32.5601 24.3082 32.5601 24.7502C32.5601 25.1922 32.9184 25.5503 33.3603 25.5503Z" fill="#D1DDFF"/>
<path d="M33.3603 33.3279H67.5777C68.0195 33.3279 68.3778 32.9697 68.3778 32.5277C68.3778 32.0857 68.0195 31.7276 67.5777 31.7276H33.3603C32.9184 31.7276 32.5601 32.0857 32.5601 32.5277C32.5601 32.9697 32.9184 33.3279 33.3603 33.3279Z" fill="#D1DDFF"/>
<path d="M33.3603 41.1051H67.5777C68.0195 41.1051 68.3778 40.747 68.3778 40.305C68.3778 39.863 68.0195 39.5049 67.5777 39.5049H33.3603C32.9184 39.5049 32.5601 39.863 32.5601 40.305C32.5601 40.747 32.9184 41.1051 33.3603 41.1051Z" fill="#01EBA4"/>
<path d="M67.2763 43.3581C67.5064 43.3581 67.7348 43.2594 67.8931 43.0683C68.175 42.7279 68.1275 42.2237 67.7873 41.9417L55.677 31.9113C55.3636 31.6518 54.9051 31.6688 54.6119 31.951L51.5537 34.8941L49.3167 27.9194C49.2104 27.5883 48.9025 27.3636 48.5548 27.3636H41.9819C41.6041 27.3636 41.2776 27.6279 41.1992 27.9978L39.7097 35.019H34.2079C33.7661 35.019 33.4078 35.3772 33.4078 35.8192C33.4078 36.2612 33.7661 36.6193 34.2079 36.6193H40.358C40.736 36.6193 41.0623 36.3549 41.1407 35.9851L42.6302 28.9638H47.9709L50.4217 36.6049C50.506 36.868 50.7201 37.0686 50.9878 37.1362C51.2555 37.204 51.5393 37.1283 51.7383 36.9369L55.2064 33.5996L66.7663 43.1741C66.9156 43.2978 67.0966 43.3581 67.2763 43.3581Z" fill="#FF7EB7"/>
<path d="M23.0328 38.0558H25.72C26.1618 38.0558 26.5201 37.6975 26.5201 37.2557V34.5686C26.5201 34.1267 26.1618 33.7684 25.72 33.7684H23.0328C22.591 33.7684 22.2327 34.1267 22.2327 34.5686V37.2557C22.2327 37.6977 22.5908 38.0558 23.0328 38.0558Z" fill="#02FFB2"/>
<path d="M20.9997 44.2983H25.5862C26.028 44.2983 26.3863 43.9402 26.3863 43.4982C26.3863 43.0562 26.028 42.6981 25.5862 42.6981H20.9997C20.5579 42.6981 20.1996 43.0562 20.1996 43.4982C20.1996 43.9402 20.5579 44.2983 20.9997 44.2983Z" fill="#9EAFFD"/>
<path d="M16.5159 41.5483H25.586C26.0278 41.5483 26.3861 41.1901 26.3861 40.7481C26.3861 40.3061 26.0278 39.948 25.586 39.948H16.5159C16.0741 39.948 15.7158 40.3061 15.7158 40.7481C15.7158 41.1901 16.0741 41.5483 16.5159 41.5483Z" fill="#9EAFFD"/>
<path d="M23.0328 24.6873H25.72C26.1618 24.6873 26.5201 24.329 26.5201 23.8872V21.2C26.5201 20.7582 26.1618 20.3999 25.72 20.3999H23.0328C22.591 20.3999 22.2327 20.7582 22.2327 21.2V23.8872C22.2327 24.3292 22.5908 24.6873 23.0328 24.6873Z" fill="#FF7EB7"/>
<path d="M18.8842 30.8638H25.3908C25.8326 30.8638 26.1909 30.5057 26.1909 30.0637C26.1909 29.6217 25.8326 29.2635 25.3908 29.2635H18.8842C18.4423 29.2635 18.084 29.6217 18.084 30.0637C18.084 30.5057 18.4423 30.8638 18.8842 30.8638Z" fill="#9EAFFD"/>
<path d="M23.3618 28.1136H25.3908C25.8326 28.1136 26.1909 27.7555 26.1909 27.3135C26.1909 26.8715 25.8326 26.5134 25.3908 26.5134H23.3618C22.92 26.5134 22.5617 26.8715 22.5617 27.3135C22.5617 27.7555 22.92 28.1136 23.3618 28.1136Z" fill="#9EAFFD"/>
<path d="M18.8842 28.1136H20.1957C20.6376 28.1136 20.9958 27.7555 20.9958 27.3135C20.9958 26.8715 20.6376 26.5134 20.1957 26.5134H18.8842C18.4423 26.5134 18.084 26.8715 18.084 27.3135C18.084 27.7555 18.4423 28.1136 18.8842 28.1136Z" fill="#9EAFFD"/>
<path d="M75.6311 67.1099L67.0745 50.9256V41.8929H60.3437V50.9256L51.7871 67.1099C50.7734 69.0272 52.1635 71.3344 54.3324 71.3344H73.086C75.2547 71.3346 76.6448 69.0273 75.6311 67.1099Z" fill="#9EAFFD"/>
<path d="M67.0739 43.7604H60.3444V47.4369H67.0739V43.7604Z" fill="#8298FD"/>
<path d="M58.9872 63.7967L69.8463 60.7881L64.9147 51.4617V43.4125H62.5035V51.4617L57.8338 60.2941L58.9872 63.7967Z" fill="#FFA7CE"/>
<path d="M69.3228 62.7204C69.3228 62.7204 63.8744 56.9406 57.8341 60.2942V62.7204H69.3228Z" fill="#FF5BA7"/>
<path d="M53.7158 68.8275C53.795 68.9571 53.9792 69.1759 54.3333 69.1759L73.087 69.1744C73.4397 69.1744 73.6239 68.9571 73.7031 68.826C73.7809 68.6964 73.8873 68.4316 73.7233 68.1192L69.8466 60.788C68.8836 60.611 67.6946 60.6958 66.2624 61.3061C61.8705 63.1789 59.0059 61.9942 57.8342 60.2941L53.697 68.1192C53.5316 68.4317 53.638 68.6966 53.7158 68.8275Z" fill="#FF7EB7"/>
<path d="M64.9147 43.4125H62.5036V47.4369H64.9147V43.4125Z" fill="#FF7EB7"/>
<path d="M61.6517 58.6588H62.0904C62.5322 58.6588 62.8905 58.3006 62.8905 57.8587C62.8905 57.4167 62.5322 57.0585 62.0904 57.0585H61.6517C61.2099 57.0585 60.8516 57.4167 60.8516 57.8587C60.8516 58.3006 61.2099 58.6588 61.6517 58.6588Z" fill="white"/>
<path d="M61.6517 61.6277H62.0904C62.5322 61.6277 62.8905 61.2696 62.8905 60.8276C62.8905 60.3856 62.5322 60.0275 62.0904 60.0275H61.6517C61.2099 60.0275 60.8516 60.3856 60.8516 60.8276C60.8516 61.2696 61.2099 61.6277 61.6517 61.6277Z" fill="white"/>
<path d="M61.6517 64.5968H62.0904C62.5322 64.5968 62.8905 64.2387 62.8905 63.7967C62.8905 63.3547 62.5322 62.9966 62.0904 62.9966H61.6517C61.2099 62.9966 60.8516 63.3547 60.8516 63.7967C60.8516 64.2387 61.2099 64.5968 61.6517 64.5968Z" fill="white"/>
<path d="M61.6517 67.5658H62.0904C62.5322 67.5658 62.8905 67.2077 62.8905 66.7657C62.8905 66.3237 62.5322 65.9656 62.0904 65.9656H61.6517C61.2099 65.9656 60.8516 66.3237 60.8516 66.7657C60.8516 67.2077 61.2099 67.5658 61.6517 67.5658Z" fill="white"/>
<path d="M68.7245 43.077V41.2103C68.7245 40.7103 68.3192 40.305 67.8193 40.305H59.5989C59.099 40.305 58.6937 40.7103 58.6937 41.2103V43.077C58.6937 43.5769 59.099 43.9822 59.5989 43.9822H67.8193C68.3192 43.9822 68.7245 43.5769 68.7245 43.077Z" fill="#B6C4FF"/>
<path d="M14.2983 20.876C10.3212 20.876 7.09717 17.6519 7.09717 13.6748C7.09717 9.69776 10.3212 6.47369 14.2983 6.47369C18.2754 6.47369 21.4995 9.69776 21.4995 13.6748C21.4995 17.6519 18.2754 20.876 14.2983 20.876Z" fill="#01EBA4"/>
<path d="M11.7693 15.1474C11.7693 16.5442 12.9016 17.6766 14.2985 17.6766C15.6954 17.6766 16.8277 16.5442 16.8277 15.1474C16.8277 14.0541 15.2782 11.0912 14.6049 9.85535C14.4726 9.61259 14.1246 9.61259 13.9924 9.85535C13.3187 11.0912 11.7693 14.0541 11.7693 15.1474Z" fill="white"/>
<path d="M14.2983 5.67358C18.7102 5.67358 22.2996 9.26295 22.2996 13.6749C22.2996 18.0868 18.7102 21.6761 14.2983 21.6761C13.8738 21.6761 13.4569 21.6422 13.0501 21.5782V54.4981C13.0501 54.9393 13.4091 55.2983 13.8502 55.2983H57.1269L59.5436 50.7273V44.7796C58.629 44.75 57.8935 43.9987 57.8935 43.0771V41.2104C57.8935 40.2701 58.6585 39.505 59.5988 39.505H67.8193C68.7596 39.505 69.5245 40.2699 69.5245 41.2103V43.0771C69.5245 43.9987 68.789 44.75 67.8745 44.7796V50.7273L70.2913 55.2983H73.066C73.5072 55.2983 73.8662 54.9393 73.8662 54.4981V16.0888C73.8662 15.6476 73.5072 15.2887 73.066 15.2887H26.1658C25.724 15.2887 25.3657 14.9306 25.3657 14.4886C25.3657 14.0466 25.724 13.6885 26.1658 13.6885H73.066C74.3896 13.6885 75.4664 14.7653 75.4664 16.0888V54.4981C75.4664 55.8217 74.3896 56.8985 73.066 56.8985H71.1374L76.3385 66.7359C76.9468 67.8865 76.909 69.2392 76.2374 70.3541C75.5658 71.469 74.3877 72.1345 73.086 72.1345H30.4713C29.5889 72.1345 28.871 71.4166 28.871 70.5343V68.2822C28.871 68.0524 28.9704 67.8282 29.1522 67.6732L33.4076 64.0473V60.5711C33.4076 60.1291 33.7659 59.771 34.2077 59.771C34.6495 59.771 35.0078 60.1291 35.0078 60.5711V63.6165H51.9083V56.8985H13.8502C12.5267 56.8985 11.4499 55.8217 11.4499 54.4981V21.1503C8.44058 19.9997 6.29704 17.0837 6.29704 13.6749C6.29704 9.26295 9.88641 5.67358 14.2983 5.67358ZM53.5085 56.8985V62.1422L56.2808 56.8985H53.5085ZM67.9244 43.077V41.2101C67.9244 41.1522 67.8774 41.1051 67.8194 41.1051H59.5989C59.541 41.1051 59.494 41.1523 59.494 41.2103V43.077C59.494 43.1349 59.541 43.1819 59.5991 43.1819H67.8193C67.8772 43.1821 67.9244 43.135 67.9244 43.077ZM73.0859 70.5344C73.8213 70.5344 74.4871 70.1582 74.8665 69.5283C75.2459 68.8985 75.2673 68.1342 74.9236 67.484L66.367 51.2997C66.3062 51.1845 66.2742 51.0561 66.2742 50.9257V44.7823H61.1435V50.9257C61.1435 51.056 61.1117 51.1845 61.0507 51.2997L52.4941 67.484C52.1504 68.134 52.1717 68.8985 52.5513 69.5283C52.9308 70.1584 53.5965 70.5344 54.3319 70.5344H73.0859ZM51.2976 70.5344C51.2575 70.4755 51.2181 70.4158 51.181 70.3541C50.94 69.954 50.782 69.5234 50.7047 69.0825H30.4711V70.5344H51.2976ZM34.5023 65.2169L31.8438 67.4821H50.7841C50.855 67.2273 50.9523 66.9771 51.0798 66.7359L51.8828 65.2169H34.5023ZM14.2983 20.0759C17.8278 20.0759 20.6993 17.2044 20.6993 13.6749C20.6993 10.1453 17.8278 7.27384 14.2983 7.27384C10.7688 7.27384 7.8973 10.1453 7.8973 13.6749C7.8973 17.2044 10.7688 20.0759 14.2983 20.0759Z" fill="#2626BC"/>
<path d="M53.6093 10.8094C53.8142 10.8094 54.0188 10.7313 54.1752 10.575L55.8554 8.89474C56.168 8.58237 56.168 8.07573 55.8554 7.76336L54.1752 6.08309C53.8627 5.77056 53.3562 5.77056 53.0436 6.08309L51.3634 7.76336C51.0508 8.07573 51.0508 8.58237 51.3634 8.89474L53.0436 10.575C53.1998 10.7313 53.4045 10.8094 53.6093 10.8094ZM54.1581 8.32905L53.6093 8.87777L53.0606 8.32905L53.6093 7.78032L54.1581 8.32905Z" fill="#01EBA4"/>
<path d="M7.82402 27.6205C8.02885 27.6205 8.23353 27.5424 8.38987 27.386C8.7024 27.0736 8.7024 26.567 8.38987 26.2546L6.01349 23.8783C5.70096 23.5657 5.19449 23.5657 4.88196 23.8783C4.56943 24.1906 4.56943 24.6973 4.88196 25.0096L7.25833 27.386C7.41435 27.5422 7.61919 27.6205 7.82402 27.6205Z" fill="#6582FD"/>
<path d="M5.44765 27.6205C5.65248 27.6205 5.85715 27.5424 6.01349 27.386L8.38987 25.0096C8.7024 24.6973 8.7024 24.1906 8.38987 23.8783C8.07734 23.5657 7.57086 23.5657 7.25833 23.8783L4.88196 26.2546C4.56943 26.567 4.56943 27.0736 4.88196 27.386C5.03814 27.5422 5.24281 27.6205 5.44765 27.6205Z" fill="#6582FD"/>
<path d="M22.6527 74.859C22.8576 74.859 23.0622 74.7809 23.2186 74.6246L24.8988 72.9443C25.2114 72.6319 25.2114 72.1253 24.8988 71.8129L23.2186 70.1327C22.906 69.8201 22.3996 69.8201 22.087 70.1327L20.4068 71.8129C20.0942 72.1253 20.0942 72.6319 20.4068 72.9443L22.087 74.6246C22.2432 74.7809 22.4479 74.859 22.6527 74.859ZM23.2015 72.3786L22.6527 72.9273L22.104 72.3786L22.6527 71.8299L23.2015 72.3786Z" fill="#01EBA4"/>
<path d="M66.1028 9.12926C66.3077 9.12926 66.5123 9.05117 66.6687 8.89483C66.9812 8.58246 66.9812 8.07582 66.6687 7.76345L64.2925 5.38723C63.9798 5.0747 63.4733 5.07486 63.1609 5.38723C62.8484 5.6996 62.8484 6.20624 63.1609 6.51861L65.5371 8.89483C65.6933 9.05117 65.898 9.12926 66.1028 9.12926Z" fill="#6582FD"/>
<path d="M63.7266 9.1292C63.9314 9.1292 64.1361 9.05111 64.2924 8.89476L66.6685 6.51855C66.981 6.20618 66.981 5.69954 66.6685 5.38717C66.356 5.07464 65.8495 5.07464 65.537 5.38717L63.1607 7.76338C62.8482 8.07575 62.8482 8.58239 63.1607 8.89476C63.3169 9.05111 63.5218 9.1292 63.7266 9.1292Z" fill="#6582FD"/>
<path d="M18.2785 66.4052C18.4833 66.4052 18.688 66.3271 18.8443 66.1707C19.1569 65.8584 19.1569 65.3517 18.8443 65.0394L16.468 62.663C16.1554 62.3505 15.649 62.3505 15.3364 62.663C15.0239 62.9754 15.0239 63.482 15.3364 63.7944L17.7128 66.1707C17.869 66.3271 18.0737 66.4052 18.2785 66.4052Z" fill="#FF5BA7"/>
<path d="M15.9021 66.4052C16.1069 66.4052 16.3116 66.3271 16.468 66.1707L18.8443 63.7944C19.1569 63.482 19.1569 62.9754 18.8443 62.663C18.5318 62.3505 18.0253 62.3505 17.7128 62.663L15.3364 65.0394C15.0239 65.3517 15.0239 65.8584 15.3364 66.1707C15.4926 66.3271 15.6973 66.4052 15.9021 66.4052Z" fill="#FF5BA7"/>
</g>
<defs>
<linearGradient id="paint0_linear_28_187" x1="61.0567" y1="65.4257" x2="8.40535" y2="12.7743" gradientUnits="userSpaceOnUse">
<stop stop-color="#FFFCFF" stop-opacity="0"/>
<stop offset="1" stop-color="#FFDAEC"/>
</linearGradient>
<clipPath id="clip0_28_187">
<rect width="81.933" height="81.933" fill="white" transform="matrix(-1 0 0 1 82.4995 0.0335083)"/>
</clipPath>
</defs>
</svg>
