<svg width="50" height="49" viewBox="0 0 50 49" fill="none" xmlns="http://www.w3.org/2000/svg">
<g clip-path="url(#clip0_25_147)">
<path d="M50 31.7633V47.4892C50 48.2321 49.1892 48.7401 48.4415 48.467C44.8452 47.1554 41.1731 46.5003 37.5 46.5003C33.5957 46.5003 29.6925 47.241 25.8817 48.7236C25.6009 48.8329 25.3023 48.8919 25.0001 48.8919C24.6977 48.8919 24.399 48.8329 24.118 48.7236C16.7227 45.8476 8.97608 45.762 1.55843 48.4671C0.810784 48.74 0 48.232 0 47.4892V31.7633C0 31.2283 0.342843 30.7417 0.877255 30.5338C4.69029 29.0502 8.59402 28.3097 12.4988 28.3097C16.7041 28.3097 20.9105 29.1694 25 30.8889C32.8887 27.5724 41.2053 27.4544 49.1227 30.5338C49.6572 30.7417 50 31.2283 50 31.7633Z" fill="url(#paint0_linear_25_147)"/>
<path d="M48.4415 46.3132C44.8452 45.0016 41.1731 44.3464 37.5 44.3464C33.5957 44.3464 29.6925 45.0872 25.8817 46.5698C25.6009 46.679 25.3023 46.738 25.0001 46.738C24.6977 46.738 24.399 46.679 24.118 46.5698C16.7227 43.6938 8.97608 43.6083 1.55843 46.3133C0.810784 46.5863 0 46.0782 0 45.3355V47.4893C0 48.2321 0.810784 48.7401 1.55853 48.467C8.97618 45.7621 16.7227 45.8476 24.1181 48.7237C24.3991 48.8329 24.6979 48.8919 25.0002 48.8919C25.3024 48.8919 25.601 48.8329 25.8818 48.7237C29.6925 47.2411 33.5958 46.5003 37.5001 46.5003C41.1732 46.5003 44.8453 47.1555 48.4416 48.467C49.1893 48.7401 50.0001 48.2321 50.0001 47.4893V45.3355C50 46.0782 49.1892 46.5863 48.4415 46.3132Z" fill="url(#paint1_linear_25_147)"/>
<path d="M48.5654 31.202V44.2235C48.5654 44.9664 47.8017 45.4743 47.0964 45.2013C43.7065 43.8897 40.2455 43.2346 36.7833 43.2346C33.4443 43.2346 30.1063 43.844 26.8324 45.0647C26.2467 45.2831 25.6269 45.4013 25.0001 45.4013C24.3725 45.4013 23.7522 45.2826 23.1657 45.064C16.499 42.5797 9.56126 42.6257 2.90371 45.2012C2.19842 45.4742 1.43469 44.9663 1.43469 44.2234V31.2019C1.43469 30.6669 1.75812 30.1803 2.26156 29.9724C5.85557 28.4888 9.53675 27.7483 13.2168 27.7483C17.1813 27.7483 21.1446 28.608 25.0001 30.3275C32.4359 27.0109 40.2753 26.893 47.7386 29.9724C48.2419 30.1804 48.5654 30.667 48.5654 31.202Z" fill="url(#paint2_linear_25_147)"/>
<path d="M48.5654 31.202V44.2235C48.5654 44.9664 47.8017 45.4743 47.0964 45.2013C43.7065 43.8897 40.2455 43.2346 36.7833 43.2346C33.4443 43.2346 30.1063 43.844 26.8324 45.0647C26.2467 45.2831 25.6269 45.4013 25.0001 45.4013C24.3725 45.4013 23.7522 45.2826 23.1657 45.064C16.499 42.5797 9.56126 42.6257 2.90371 45.2012C2.19842 45.4742 1.43469 44.9663 1.43469 44.2234V31.2019C1.43469 30.6669 1.75812 30.1803 2.26156 29.9724C5.85557 28.4888 9.53675 27.7483 13.2168 27.7483C17.1813 27.7483 21.1446 28.608 25.0001 30.3275C32.4359 27.0109 40.2753 26.893 47.7386 29.9724C48.2419 30.1804 48.5654 30.667 48.5654 31.202Z" fill="url(#paint3_linear_25_147)"/>
<path d="M48.5654 30.3253V43.3468C48.5654 44.0897 47.8017 44.5976 47.0964 44.3246C43.7065 43.013 40.2455 42.3579 36.7833 42.3579C33.4443 42.3579 30.1063 42.9673 26.8324 44.188C26.2467 44.4063 25.6269 44.5246 25.0001 44.5246C24.3725 44.5246 23.7522 44.4059 23.1657 44.1873C16.499 41.703 9.56126 41.749 2.90371 44.3245C2.19842 44.5975 1.43469 44.0896 1.43469 43.3467V30.3252C1.43469 29.7902 1.75812 29.3036 2.26156 29.0957C5.85557 27.6121 9.53675 26.8715 13.2168 26.8715C17.1813 26.8715 21.1446 27.7313 25.0001 29.4508C32.4359 26.1342 40.2753 26.0163 47.7386 29.0957C48.2419 29.3037 48.5654 29.7903 48.5654 30.3253Z" fill="url(#paint4_linear_25_147)"/>
<path d="M1.43463 29.6511V42.6726C1.43463 43.4155 2.19836 43.9234 2.90365 43.6503C6.29355 42.3387 9.75453 41.6836 13.2167 41.6836C16.5557 41.6836 19.8938 42.293 23.1676 43.5137C23.7534 43.7321 24.3732 43.8503 24.9999 43.8503C25.6275 43.8503 26.2478 43.7316 26.8343 43.513C33.501 41.0287 40.4387 41.0747 47.0963 43.6502C47.8016 43.9232 48.5653 43.4153 48.5653 42.6725V29.651C48.5653 29.116 48.2419 28.6294 47.7385 28.4215C44.1444 26.9379 40.4633 26.1974 36.7832 26.1974C32.8187 26.1974 28.8554 27.0571 24.9999 28.7766C17.5641 25.46 9.72473 25.3421 2.2614 28.4215C1.75806 28.6295 1.43463 29.1161 1.43463 29.6511Z" fill="url(#paint5_linear_25_147)"/>
<path d="M2.26106 27.3156C1.75812 27.5232 1.43469 28.0102 1.43469 28.545V41.5662C1.43469 42.3093 2.19891 42.8173 2.9042 42.5443C10.1748 39.7304 17.7786 39.9349 25 43.1564C25 32.6761 25 38.1508 25 27.6704C17.565 24.3541 9.72567 24.2352 2.26106 27.3156Z" fill="url(#paint6_linear_25_147)"/>
<path d="M47.7389 27.3158C40.2751 24.2359 32.4359 24.3535 25 27.6706V43.1565C32.2223 39.9345 39.8261 39.7311 47.0958 42.5446C47.8011 42.8176 48.5653 42.3096 48.5653 41.5664C48.5653 31.9078 48.5653 38.2039 48.5653 28.5452C48.5654 28.0103 48.2419 27.5233 47.7389 27.3158Z" fill="url(#paint7_linear_25_147)"/>
<path d="M3.74806 29.3949C3.27796 29.5889 2.97571 30.044 2.97571 30.5438V41.6702C2.97571 42.3647 3.68992 42.8395 4.34914 42.5844C11.1442 39.9545 18.2508 40.1455 25 43.1563C25 33.3614 25 39.5214 25 29.7265C18.0512 26.6271 10.7246 26.5158 3.74806 29.3949Z" fill="url(#paint8_linear_25_147)"/>
<path d="M4.97805 29.8041C7.05442 29.083 9.15315 28.6342 11.2602 28.458C11.456 28.4416 11.6236 28.595 11.6236 28.7875V29.5725C11.6236 29.7442 11.4892 29.8858 11.3147 29.9009C9.2655 30.078 7.22471 30.53 5.2053 31.2562C4.98609 31.335 4.75403 31.1751 4.75403 30.9462V30.1161C4.75393 29.9763 4.84364 29.8507 4.97805 29.8041Z" fill="#BEC3D2"/>
<path d="M16.8382 28.9184V29.7059C16.8382 29.9055 16.6585 30.0607 16.4568 30.0328C15.263 29.8683 14.0688 29.7972 12.877 29.8192C12.6876 29.8227 12.5314 29.675 12.5314 29.4894V28.7087C12.5314 28.5294 12.6775 28.3813 12.8605 28.378C14.0887 28.3559 15.3182 28.4268 16.5479 28.5907C16.7144 28.6129 16.8382 28.7536 16.8382 28.9184Z" fill="#BEC3D2"/>
<path d="M20.9804 29.8316V30.6516C20.9804 30.8751 20.758 31.0352 20.5412 30.9658C19.7039 30.6975 18.8585 30.4754 18.0134 30.3009C17.8572 30.2686 17.7451 30.135 17.7451 29.9786V29.1799C17.7451 28.9722 17.9388 28.8144 18.1464 28.8559C19.0153 29.0293 19.8841 29.2498 20.7454 29.5162C20.8854 29.5594 20.9804 29.6878 20.9804 29.8316Z" fill="#BEC3D2"/>
<path d="M4.97795 32.8393C5.53844 32.6449 6.10089 32.4702 6.6654 32.3153C6.88099 32.2561 7.09511 32.4134 7.09511 32.6328V33.4457C7.09511 33.5929 6.9954 33.7213 6.85109 33.7621C6.3004 33.9181 5.75128 34.0943 5.20491 34.2906C4.98589 34.3693 4.75403 34.2091 4.75403 33.9805V33.1512C4.75393 33.0114 4.84354 32.8859 4.97795 32.8393Z" fill="#BEC3D2"/>
<path d="M14.5951 31.7593V32.5404C14.5951 32.7273 14.4369 32.878 14.2465 32.8702C13.8068 32.852 13.3671 32.8468 12.9274 32.8536C11.4204 32.8783 9.91077 33.0523 8.41156 33.3734C8.20126 33.4185 8.00293 33.2591 8.00293 33.0481V32.2529C8.00293 32.0972 8.11381 31.9615 8.2692 31.9294C9.80715 31.611 11.355 31.4378 12.9029 31.4124C13.3596 31.4046 13.8169 31.4101 14.2739 31.4287C14.4537 31.4362 14.5951 31.5829 14.5951 31.7593Z" fill="#BEC3D2"/>
<path d="M20.9804 32.8667V33.686C20.9804 33.9096 20.7579 34.0694 20.5411 34C18.9764 33.4996 17.3924 33.1611 15.8039 32.9873C15.6328 32.9686 15.5029 32.8284 15.5029 32.6597V31.8742C15.5029 31.6789 15.6752 31.5247 15.8733 31.5456C17.5069 31.7175 19.1356 32.054 20.7455 32.5512C20.8855 32.5946 20.9804 32.7228 20.9804 32.8667Z" fill="#BEC3D2"/>
<path d="M4.97802 35.8742C7.04636 35.1564 9.15048 34.7063 11.2605 34.53C11.4562 34.5137 11.6235 34.6668 11.6235 34.8593V35.6436C11.6235 35.8152 11.4891 35.9569 11.3145 35.9719C9.26351 36.1491 7.21724 36.6023 5.20508 37.3254C4.98596 37.4042 4.75391 37.2442 4.75391 37.0155V36.1862C4.75391 36.0465 4.84361 35.9209 4.97802 35.8742Z" fill="#BEC3D2"/>
<path d="M20.9804 35.9009V36.7211C20.9804 36.9446 20.758 37.1046 20.5413 37.0353C18.0318 36.2327 15.4748 35.8481 12.9275 35.8889C12.9101 35.8892 12.8927 35.8895 12.8754 35.8898C12.6866 35.8932 12.5314 35.7451 12.5314 35.56V34.7786C12.5314 34.599 12.678 34.4517 12.8614 34.4485C12.8752 34.4482 12.8891 34.448 12.9029 34.4478C15.5291 34.405 18.1619 34.7874 20.7454 35.5856C20.8854 35.6287 20.9804 35.757 20.9804 35.9009Z" fill="#BEC3D2"/>
<path d="M4.97795 38.9087C5.53834 38.7145 6.10079 38.5401 6.6653 38.385C6.88089 38.3257 7.09511 38.4831 7.09511 38.7026V39.5153C7.09511 39.6625 6.9956 39.7908 6.85138 39.8317C6.3006 39.9881 5.75138 40.1645 5.20491 40.3609C4.98589 40.4396 4.75403 40.2794 4.75403 40.0508V39.2206C4.75393 39.0807 4.84354 38.9553 4.97795 38.9087Z" fill="#BEC3D2"/>
<path d="M16.8382 38.0235V38.8112C16.8382 39.0128 16.6556 39.1656 16.4519 39.1376C15.2788 38.9764 14.1023 38.9049 12.9274 38.9241C11.4204 38.9488 9.91077 39.1219 8.41156 39.4437C8.20126 39.4888 8.00293 39.3294 8.00293 39.1184V38.3232C8.00293 38.1675 8.11371 38.0319 8.26911 37.9997C9.80715 37.6805 11.355 37.5083 12.9029 37.4828C14.1187 37.4632 15.3354 37.5343 16.5481 37.696C16.7146 37.7183 16.8382 37.8589 16.8382 38.0235Z" fill="#BEC3D2"/>
<path d="M47.0959 42.5445C47.8012 42.8175 48.5654 42.3095 48.5654 41.5663C48.5654 31.9077 48.5654 38.2038 48.5654 28.5451C48.5654 28.0103 48.242 27.5233 47.7389 27.3158C40.2751 24.2359 32.4359 24.3535 25 27.6706C23.6156 27.0531 22.2172 26.5468 20.8097 26.151L19.6771 29.256C19.5705 29.5481 19.7899 29.8311 20.0728 29.8498L31.5354 41.0832C36.7218 40.0831 41.9911 40.569 47.0959 42.5445Z" fill="url(#paint9_linear_25_147)"/>
<path d="M48.0852 6.75235L43.2203 1.98475L44.9159 0.323073C45.1646 0.0793225 45.5531 0.0382009 45.8492 0.224497C47.4675 1.24235 48.8428 2.59014 49.8815 4.17611C50.0715 4.46626 50.0296 4.84693 49.7809 5.09077L48.0852 6.75235Z" fill="url(#paint10_linear_25_147)"/>
<path d="M48.0852 6.75234L49.7808 5.09067C49.8211 5.05118 49.8553 5.00785 49.8847 4.96211C49.8651 4.89169 49.8351 4.82318 49.7932 4.7592C48.7546 3.17323 47.3792 1.82544 45.7609 0.807586C45.4648 0.621386 45.0764 0.662412 44.8276 0.906163L43.4736 2.23301L48.0852 6.75234Z" fill="url(#paint11_linear_25_147)"/>
<path d="M49.8815 4.17601C49.7056 3.90738 49.5192 3.64624 49.3245 3.39172C49.2796 3.50529 49.211 3.61126 49.1187 3.70177L47.0456 5.73344L48.0853 6.75236L49.7809 5.09068C50.0296 4.84683 50.0715 4.46617 49.8815 4.17601Z" fill="url(#paint12_linear_25_147)"/>
<path d="M45.6224 9.66265L48.4863 6.8561C48.5978 6.74676 48.5978 6.56959 48.4863 6.46035L43.5183 1.59177C43.4067 1.48243 43.226 1.48243 43.1145 1.59177L40.2507 4.39832L45.6224 9.66265Z" fill="url(#paint13_linear_25_147)"/>
<path d="M41.6931 2.9811V13.5133L47.073 8.24457L41.6977 2.97668L41.6931 2.9811Z" fill="url(#paint14_linear_25_147)"/>
<path d="M46.9008 8.12587L41.8188 3.14554C41.5643 2.89603 41.5643 2.49163 41.8188 2.24212C42.0734 1.9927 42.4861 1.9927 42.7407 2.24212L47.8226 7.22244C48.0771 7.47196 48.0771 7.87635 47.8226 8.12587C47.568 8.37528 47.1553 8.37528 46.9008 8.12587Z" fill="url(#paint15_linear_25_147)"/>
<path d="M22.343 21.9478L19.6771 29.256C19.5481 29.6095 19.8966 29.9511 20.2574 29.8247L27.7147 27.2121C29.2026 25.7541 23.8308 20.4897 22.343 21.9478Z" fill="url(#paint16_linear_25_147)"/>
<path d="M23.6432 23.1583L19.7199 29.583C19.7136 29.5934 19.7089 29.6037 19.7036 29.6139C19.8031 29.7954 20.0274 29.9052 20.2573 29.8246L27.7146 27.2121C27.7261 27.2008 27.736 27.1886 27.7467 27.1769C28.1893 25.473 25.0968 22.0193 23.6432 23.1583Z" fill="url(#paint17_linear_25_147)"/>
<path d="M46.0764 9.2177L27.7147 27.2121C27.6435 27.0912 27.5546 26.9772 27.4493 26.874C26.7921 26.2299 25.7263 26.2299 25.069 26.874C25.0394 26.9031 25.1539 26.7839 25.1539 26.7839C25.7249 26.136 25.6966 25.1564 25.0685 24.541C24.4405 23.9255 23.441 23.8977 22.7798 24.4573C22.7798 24.4573 22.6582 24.5695 22.6878 24.5405C23.3451 23.8964 23.3451 22.8519 22.6878 22.2078C22.5825 22.1046 22.4663 22.0176 22.3428 21.9477L40.7046 3.95337L46.0764 9.2177Z" fill="url(#paint18_linear_25_147)"/>
<path d="M44.5776 7.74888L25.154 26.7839C25.725 26.136 25.6967 25.1565 25.0686 24.541C24.4406 23.9255 23.4411 23.8977 22.7799 24.4573L42.2034 5.42224L44.5776 7.74888Z" fill="url(#paint19_linear_25_147)"/>
<path d="M22.6879 24.5405C22.6583 24.5695 22.7799 24.4573 22.7799 24.4573C23.4411 23.8978 24.4406 23.9255 25.0686 24.541C25.6967 25.1565 25.7249 26.136 25.154 26.784C25.154 26.784 25.0395 26.9031 25.0691 26.8741C25.7264 26.23 26.7922 26.23 27.4494 26.8741C27.5547 26.9773 27.6435 27.0912 27.7148 27.2122L46.0764 9.21765L41.3435 4.57947L22.9739 22.5817C23.3242 23.208 23.2292 24.01 22.6879 24.5405Z" fill="url(#paint20_linear_25_147)"/>
<path d="M21.1824 28.3494C20.9002 28.0728 20.5848 27.851 20.2512 27.6824L19.6771 29.2559C19.5481 29.6095 19.8967 29.9511 20.2574 29.8246L21.8631 29.2621C21.6911 28.935 21.4646 28.626 21.1824 28.3494Z" fill="url(#paint21_linear_25_147)"/>
<path d="M39.8566 4.78091L39.8692 15.3043L45.2365 10.0444L39.8612 4.77649L39.8566 4.78091Z" fill="url(#paint22_linear_25_147)"/>
<path d="M45.0633 9.92648L39.9814 4.94615C39.7268 4.69664 39.7268 4.29224 39.9814 4.04273C40.236 3.79321 40.6486 3.79321 40.9032 4.04273L45.9852 9.02305C46.2398 9.27247 46.2398 9.67696 45.9852 9.92648C45.7306 10.1759 45.3178 10.1759 45.0633 9.92648Z" fill="url(#paint23_linear_25_147)"/>
<path d="M3.03804 21.5518H0.985686C0.441275 21.5518 0 21.1194 0 20.5858C0 20.0523 0.441275 19.6199 0.985686 19.6199H3.03804C3.58245 19.6199 4.02373 20.0524 4.02373 20.5858C4.02382 21.1194 3.58245 21.5518 3.03804 21.5518Z" fill="url(#paint24_linear_25_147)"/>
<path d="M21.6604 3.30199V1.29068C21.6604 0.757156 21.219 0.324707 20.6747 0.324707C20.1303 0.324707 19.689 0.757252 19.689 1.29068V3.30199C19.689 3.83551 20.1303 4.26796 20.6747 4.26796C21.219 4.26805 21.6604 3.83551 21.6604 3.30199Z" fill="url(#paint25_linear_25_147)"/>
<path d="M7.50664 9.04727L6.05546 7.62512C5.67056 7.24791 5.67056 6.63628 6.05546 6.25898C6.44036 5.88177 7.06448 5.88177 7.44948 6.25898L8.90076 7.68123C9.28566 8.05843 9.28566 8.67007 8.90076 9.04737C8.51576 9.42457 7.89164 9.42457 7.50664 9.04727Z" fill="url(#paint26_linear_25_147)"/>
<path d="M33.8427 9.04737L35.2939 7.62512C35.6788 7.24791 35.6788 6.63628 35.2939 6.25898C34.909 5.88177 34.2848 5.88177 33.8999 6.25898L32.4486 7.68123C32.0637 8.05843 32.0637 8.67007 32.4486 9.04737C32.8336 9.42467 33.4577 9.42467 33.8427 9.04737Z" fill="url(#paint27_linear_25_147)"/>
</g>
<defs>
<linearGradient id="paint0_linear_25_147" x1="14.8621" y1="29.3775" x2="45.9908" y2="61.9629" gradientUnits="userSpaceOnUse">
<stop stop-color="#FF7044"/>
<stop offset="1" stop-color="#F92814"/>
</linearGradient>
<linearGradient id="paint1_linear_25_147" x1="23.9965" y1="39.0705" x2="26.0538" y2="54.8152" gradientUnits="userSpaceOnUse">
<stop stop-color="#F92814" stop-opacity="0"/>
<stop offset="1" stop-color="#C1272D"/>
</linearGradient>
<linearGradient id="paint2_linear_25_147" x1="23.441" y1="29.25" x2="25.5622" y2="41.223" gradientUnits="userSpaceOnUse">
<stop stop-color="#F9F7FC"/>
<stop offset="1" stop-color="#F0DDFC"/>
</linearGradient>
<linearGradient id="paint3_linear_25_147" x1="23.441" y1="29.25" x2="25.5622" y2="41.223" gradientUnits="userSpaceOnUse">
<stop stop-color="#F9F7FC"/>
<stop offset="1" stop-color="#F0DDFC"/>
</linearGradient>
<linearGradient id="paint4_linear_25_147" x1="25.9641" y1="42.3148" x2="27.59" y2="51.9552" gradientUnits="userSpaceOnUse">
<stop stop-color="#F0DDFC" stop-opacity="0"/>
<stop offset="0.2889" stop-color="#C8B7E0" stop-opacity="0.289"/>
<stop offset="0.5915" stop-color="#A595C8" stop-opacity="0.592"/>
<stop offset="0.8395" stop-color="#8F81B8" stop-opacity="0.84"/>
<stop offset="1" stop-color="#8779B3"/>
</linearGradient>
<linearGradient id="paint5_linear_25_147" x1="24.4167" y1="42.4031" x2="23.8358" y2="48.881" gradientUnits="userSpaceOnUse">
<stop stop-color="#F0DDFC" stop-opacity="0"/>
<stop offset="0.2889" stop-color="#C8B7E0" stop-opacity="0.289"/>
<stop offset="0.5915" stop-color="#A595C8" stop-opacity="0.592"/>
<stop offset="0.8395" stop-color="#8F81B8" stop-opacity="0.84"/>
<stop offset="1" stop-color="#8779B3"/>
</linearGradient>
<linearGradient id="paint6_linear_25_147" x1="10.8582" y1="32.5245" x2="19.184" y2="41.0202" gradientUnits="userSpaceOnUse">
<stop stop-color="#F9F7FC"/>
<stop offset="1" stop-color="#F0DDFC"/>
</linearGradient>
<linearGradient id="paint7_linear_25_147" x1="32.5096" y1="30.236" x2="40.3731" y2="40.5526" gradientUnits="userSpaceOnUse">
<stop stop-color="#F9F7FC"/>
<stop offset="1" stop-color="#F0DDFC"/>
</linearGradient>
<linearGradient id="paint8_linear_25_147" x1="13.3205" y1="35.3083" x2="5.65048" y2="28.0675" gradientUnits="userSpaceOnUse">
<stop stop-color="#E9EDF5" stop-opacity="0"/>
<stop offset="1" stop-color="white"/>
</linearGradient>
<linearGradient id="paint9_linear_25_147" x1="39.3267" y1="34.0539" x2="25.9502" y2="20.0125" gradientUnits="userSpaceOnUse">
<stop stop-color="#F0DDFC" stop-opacity="0"/>
<stop offset="0.1613" stop-color="#E8D5F6" stop-opacity="0.161"/>
<stop offset="0.4171" stop-color="#D1BFE6" stop-opacity="0.417"/>
<stop offset="0.7332" stop-color="#AC9CCD" stop-opacity="0.733"/>
<stop offset="1" stop-color="#8779B3"/>
</linearGradient>
<linearGradient id="paint10_linear_25_147" x1="45.2731" y1="1.59832" x2="48.7922" y2="5.18915" gradientUnits="userSpaceOnUse">
<stop stop-color="#FF7044"/>
<stop offset="1" stop-color="#F92814"/>
</linearGradient>
<linearGradient id="paint11_linear_25_147" x1="46.6332" y1="4.17894" x2="47.0793" y2="-0.958024" gradientUnits="userSpaceOnUse">
<stop stop-color="#FF7044" stop-opacity="0"/>
<stop offset="1" stop-color="#FFA425"/>
</linearGradient>
<linearGradient id="paint12_linear_25_147" x1="50.0709" y1="2.55427" x2="48.1414" y2="6.05453" gradientUnits="userSpaceOnUse">
<stop stop-color="#F92814" stop-opacity="0"/>
<stop offset="1" stop-color="#C1272D"/>
</linearGradient>
<linearGradient id="paint13_linear_25_147" x1="42.7083" y1="3.78485" x2="46.5939" y2="7.74975" gradientUnits="userSpaceOnUse">
<stop stop-color="#F9F7FC"/>
<stop offset="1" stop-color="#F0DDFC"/>
</linearGradient>
<linearGradient id="paint14_linear_25_147" x1="43.2763" y1="7.25059" x2="45.8126" y2="3.3464" gradientUnits="userSpaceOnUse">
<stop stop-color="#F0DDFC" stop-opacity="0"/>
<stop offset="0.2889" stop-color="#C8B7E0" stop-opacity="0.289"/>
<stop offset="0.5915" stop-color="#A595C8" stop-opacity="0.592"/>
<stop offset="0.8395" stop-color="#8F81B8" stop-opacity="0.84"/>
<stop offset="1" stop-color="#8779B3"/>
</linearGradient>
<linearGradient id="paint15_linear_25_147" x1="45.1419" y1="4.83962" x2="44.3871" y2="5.67816" gradientUnits="userSpaceOnUse">
<stop stop-color="#F9F7FC"/>
<stop offset="1" stop-color="#F0DDFC"/>
</linearGradient>
<linearGradient id="paint16_linear_25_147" x1="20.2895" y1="23.9586" x2="25.552" y2="29.3285" gradientUnits="userSpaceOnUse">
<stop stop-color="#FFDAAA"/>
<stop offset="0.4213" stop-color="#FFD8A8"/>
<stop offset="0.6519" stop-color="#FED1A0"/>
<stop offset="0.8359" stop-color="#FDC592"/>
<stop offset="0.9951" stop-color="#FCB47F"/>
<stop offset="1" stop-color="#FCB37E"/>
</linearGradient>
<linearGradient id="paint17_linear_25_147" x1="23.8063" y1="27.8037" x2="20.3616" y2="22.9706" gradientUnits="userSpaceOnUse">
<stop stop-color="#FFDAAA" stop-opacity="0"/>
<stop offset="0.2507" stop-color="#FFE7C8" stop-opacity="0.251"/>
<stop offset="0.5543" stop-color="#FFF4E6" stop-opacity="0.554"/>
<stop offset="0.8148" stop-color="#FFFCF8" stop-opacity="0.815"/>
<stop offset="1" stop-color="white"/>
</linearGradient>
<linearGradient id="paint18_linear_25_147" x1="30.9559" y1="13.5055" x2="36.2185" y2="18.8754" gradientUnits="userSpaceOnUse">
<stop stop-color="#FFDA45"/>
<stop offset="1" stop-color="#FFA425"/>
</linearGradient>
<linearGradient id="paint19_linear_25_147" x1="32.3538" y1="14.7841" x2="36.5353" y2="19.0509" gradientUnits="userSpaceOnUse">
<stop stop-color="#FFDA45"/>
<stop offset="1" stop-color="#FFA425"/>
</linearGradient>
<linearGradient id="paint20_linear_25_147" x1="34.9009" y1="17.7439" x2="30.6275" y2="10.3783" gradientUnits="userSpaceOnUse">
<stop stop-color="#FFDA45" stop-opacity="0"/>
<stop offset="1" stop-color="#FCEE21"/>
</linearGradient>
<linearGradient id="paint21_linear_25_147" x1="20.332" y1="28.8626" x2="21.6748" y2="30.2328" gradientUnits="userSpaceOnUse">
<stop stop-color="#7E8595"/>
<stop offset="1" stop-color="#555A66"/>
</linearGradient>
<linearGradient id="paint22_linear_25_147" x1="40.5794" y1="12.7338" x2="44.398" y2="2.00192" gradientUnits="userSpaceOnUse">
<stop stop-color="#FFDA45" stop-opacity="0"/>
<stop offset="1" stop-color="#B53759"/>
</linearGradient>
<linearGradient id="paint23_linear_25_147" x1="43.3047" y1="6.63994" x2="42.5499" y2="7.47849" gradientUnits="userSpaceOnUse">
<stop stop-color="#F9F7FC"/>
<stop offset="1" stop-color="#F0DDFC"/>
</linearGradient>
<linearGradient id="paint24_linear_25_147" x1="2.01186" y1="20.3608" x2="2.01186" y2="22.3486" gradientUnits="userSpaceOnUse">
<stop stop-color="#92F37F"/>
<stop offset="1" stop-color="#4AB272"/>
</linearGradient>
<linearGradient id="paint25_linear_25_147" x1="20.4452" y1="2.29633" x2="22.4734" y2="2.29633" gradientUnits="userSpaceOnUse">
<stop stop-color="#92F37F"/>
<stop offset="1" stop-color="#4AB272"/>
</linearGradient>
<linearGradient id="paint26_linear_25_147" x1="7.63684" y1="7.48913" x2="6.23178" y2="8.92287" gradientUnits="userSpaceOnUse">
<stop stop-color="#92F37F"/>
<stop offset="1" stop-color="#4AB272"/>
</linearGradient>
<linearGradient id="paint27_linear_25_147" x1="33.7137" y1="7.48929" x2="35.1187" y2="8.92296" gradientUnits="userSpaceOnUse">
<stop stop-color="#92F37F"/>
<stop offset="1" stop-color="#4AB272"/>
</linearGradient>
<clipPath id="clip0_25_147">
<rect width="50" height="49" fill="white"/>
</clipPath>
</defs>
</svg>
